<svg id="Capa_1" enable-background="new 0 0 512 512" height="512" viewBox="0 0 512 512" width="512" xmlns="http://www.w3.org/2000/svg"><g><path d="m144.564 196.709c-.052-.137-.105-.274-.162-.41-2.714-6.598-9.074-10.859-16.208-10.859-.005 0-.011 0-.017 0-7.141.006-13.501 4.281-16.205 10.89-.047.113-.092.227-.135.341l-41.855 109.897c-2.948 7.742.937 16.408 8.679 19.356 7.747 2.95 16.408-.938 19.356-8.679l6.745-17.709h46.542l6.667 17.666c2.268 6.007 7.975 9.708 14.037 9.708 1.759 0 3.55-.312 5.293-.97 7.751-2.925 11.663-11.579 8.738-19.33zm-28.376 72.828 11.952-31.381 11.843 31.381z" fill="#ff4d4d"/><path d="m428 296.398h-31.539v-25.225h28.107c8.284 0 15-6.716 15-15s-6.716-15-15-15h-28.107v-25.223h31.539c8.284 0 15-6.716 15-15s-6.716-15-15-15h-46.539c-8.284 0-15 6.716-15 15v110.449c0 8.284 6.716 15 15 15h46.539c8.284 0 15-6.716 15-15s-6.716-15.001-15-15.001z" fill="#e62e6b"/><path d="m233.84 255.83c0 15.77 9.01 29.48 22.16 36.24l14.432 17.893-14.432 14.117c-30.02-8.18-52.16-35.68-52.16-68.25 0-32.58 22.14-60.08 52.16-68.26l14.432 17.281-14.432 14.729c-13.15 6.77-22.16 20.48-22.16 36.25z" fill="#ff4d4d"/><path d="m96.19 96.19c-42.68 42.69-66.19 99.44-66.19 159.81s23.51 117.12 66.19 159.81c42.69 42.68 99.44 66.19 159.81 66.19l14.432 12.737-14.432 17.263c-68.38 0-132.67-26.63-181.02-74.98-48.35-48.35-74.98-112.64-74.98-181.02s26.63-132.67 74.98-181.02 112.64-74.98 181.02-74.98l20.899 15-20.899 15c-60.37 0-117.12 23.51-159.81 66.19z" fill="#407580"/><path d="m318.17 218.01c-4.64 6.86-13.96 8.67-20.83 4.03-6.73-4.54-14.6-6.95-22.76-6.95-6.69 0-13.01 1.62-18.58 4.49v-32.01c5.92-1.62 12.15-2.48 18.58-2.48 14.17 0 27.85 4.18 39.56 12.09 6.86 4.64 8.67 13.96 4.03 20.83z" fill="#e62e6b"/><path d="m337.69 255.83c0 41.64-25.95 70.73-63.11 70.73-6.43 0-12.66-.86-18.58-2.48v-32.01c5.57 2.87 11.89 4.49 18.58 4.49 18.02 0 27.47-11.93 31.19-25.73h-16.43c-8.28 0-15-6.72-15-15 0-8.29 6.72-15 15-15h33.35c8.28 0 15 6.71 15 15z" fill="#e62e6b"/><g fill="#285c66"><path d="m425.48 98.02-53.66 6.76c-.64.08-1.27.12-1.9.12-7.45 0-13.9-5.54-14.86-13.12-1.04-8.22 4.79-15.73 13.01-16.76l19.88-2.51c-13.9-10.02-28.87-18.42-44.66-25.04-27.65-11.59-57.02-17.47-87.29-17.47v-30c34.28 0 67.55 6.66 98.89 19.81 18.05 7.56 35.15 17.18 51.01 28.66l-1.59-17.9c-.73-8.25 5.36-15.53 13.61-16.27 8.25-.73 15.54 5.37 16.27 13.62l4.78 53.84c.84 7.98-5.51 15.6-13.49 16.26z"/><path d="m512 256c0 68.38-26.63 132.67-74.98 181.02s-112.64 74.98-181.02 74.98v-30c60.37 0 117.12-23.51 159.81-66.19 42.68-42.69 66.19-99.44 66.19-159.81 0-8.28 6.72-15 15-15s15 6.72 15 15z"/></g></g></svg>