<svg height="512" viewBox="0 0 64 64" width="512" xmlns="http://www.w3.org/2000/svg"><g id="Icons"><g><g><g><circle cx="32" cy="20" fill="#fab400" r="10"/></g><g><g><path d="m34 22h-4c-1.105 0-2-.895-2-2v-4h8v4c0 1.105-.895 2-2 2z" fill="#f0c8a0"/></g><g><path d="m33 12h-2c-1.657 0-3 1.343-3 3v1h8v-1c0-1.657-1.343-3-3-3z" fill="#0a5078"/></g><g><path d="m30 22h4v2h-4z" fill="#d2aa82"/></g><path d="m34 24h-4c-2.209 0-4 1.791-4 4 1.671 1.255 3.749 2 6 2s4.329-.744 6-2c0-2.209-1.791-4-4-4z" fill="#f0f0f0"/></g></g><g><g><circle cx="18" cy="44" fill="#00a0c8" r="10"/></g><g><path d="m23 48h-10c-1.364 0-2.515.911-2.879 2.158 1.83 2.339 4.679 3.842 7.879 3.842s6.049-1.503 7.879-3.842c-.364-1.247-1.515-2.158-2.879-2.158z" fill="#0a5078"/><g><path d="m18 50c-1.105 0-2-.895-2-2v-3h4v3c0 1.105-.895 2-2 2z" fill="#d2aa82"/></g><g><path d="m19 46h-2c-1.657 0-3-1.343-3-3v-3c0-1.105.895-2 2-2h4c1.105 0 2 .895 2 2v3c0 1.657-1.343 3-3 3z" fill="#f0c8a0"/></g><g><path d="m20 38h-4c-1.105 0-2 .895-2 2v-2c0-1.105.895-2 2-2h4c1.105 0 2 .895 2 2v2c0-1.105-.895-2-2-2z" fill="#0a5078"/></g></g></g><g><g><circle cx="46" cy="44" fill="#c80a50" r="10"/></g><g><path d="m51 48h-10c-1.364 0-2.515.911-2.879 2.158 1.83 2.339 4.679 3.842 7.879 3.842s6.049-1.503 7.879-3.842c-.364-1.247-1.515-2.158-2.879-2.158z" fill="#fab400"/><g><path d="m46 50c-1.105 0-2-.895-2-2v-3h4v3c0 1.105-.895 2-2 2z" fill="#d2aa82"/></g><g><path d="m47 46h-2c-1.657 0-3-1.343-3-3v-3c0-1.105.895-2 2-2h4c1.105 0 2 .895 2 2v3c0 1.657-1.343 3-3 3z" fill="#f0c8a0"/></g><g><path d="m48 38h-4c-1.105 0-2 .895-2 2v-2c0-1.105.895-2 2-2h4c1.105 0 2 .895 2 2v2c0-1.105-.895-2-2-2z" fill="#f0f0f0"/></g></g></g><g><path d="m32 34c-7.72 0-14-6.28-14-14s6.28-14 14-14 14 6.28 14 14-6.28 14-14 14zm0-26c-6.617 0-12 5.383-12 12s5.383 12 12 12 12-5.383 12-12-5.383-12-12-12z" fill="#fab400"/></g><g><path d="m18 58c-7.72 0-14-6.28-14-14s6.28-14 14-14 14 6.28 14 14-6.28 14-14 14zm0-26c-6.617 0-12 5.383-12 12s5.383 12 12 12 12-5.383 12-12-5.383-12-12-12z" fill="#00a0c8"/></g><g><path d="m46 58c-7.72 0-14-6.28-14-14s6.28-14 14-14 14 6.28 14 14-6.28 14-14 14zm0-26c-6.617 0-12 5.383-12 12s5.383 12 12 12 12-5.383 12-12-5.383-12-12-12z" fill="#c80a50"/></g></g></g></svg>