<?xml version="1.0" encoding="iso-8859-1"?>
<!-- Uploaded to: SVG Repo, www.svgrepo.com, Generator: SVG Repo Mixer Tools -->
<svg height="800px" width="800px" version="1.1" id="Layer_1" xmlns="http://www.w3.org/2000/svg" xmlns:xlink="http://www.w3.org/1999/xlink" 
	 viewBox="0 0 512 512" xml:space="preserve">
<path style="fill:#0CBAD7;" d="M68.092,294.994l-29.673,29.672c-0.002,0.002-0.004,0.002-0.005,0.004
	C-2.699,365.784-2.7,432.442,38.415,473.558c41.112,41.112,107.771,41.112,148.886,0c0.001-0.003,0.003-0.004,0.005-0.006
	l29.671-29.67L68.092,294.994z"/>
<g>
	<path style="fill:#D0DDD5;" d="M398.656,224.401c30.675-30.675,30.675-80.411,0-111.086c-30.676-30.677-80.412-30.675-111.086,0
		c-4.071,4.07-7.586,8.482-10.572,13.136L121.645,348.564l41.766,41.764l222.188-155.403
		C390.221,231.945,394.607,228.447,398.656,224.401z"/>
	<path style="fill:#D0DDD5;" d="M488.833,204.677c-16.314-21.942-41.895-32.918-67.296-31.56
		c-1.007,18.661-8.628,37.031-22.882,51.285c-4.048,4.047-8.434,7.543-13.056,10.524L163.411,390.327l-0.012-0.012h-0.001
		l53.569,53.555l241.166-120.74c5.038-2.283,9.914-5.116,14.534-8.552C507.482,288.696,514.72,239.49,488.833,204.677z"/>
	<path style="fill:#D0DDD5;" d="M287.57,113.315c14.252-14.252,32.617-21.872,51.276-22.882c1.359-25.405-9.616-50.989-31.56-67.305
		C272.473-2.757,223.267,4.482,197.382,39.292c-3.438,4.62-6.27,9.498-8.55,14.535L89.771,251.691l-9.414,18.804l-12.265,24.499
		l53.552,53.569l155.353-222.112C279.984,121.796,283.499,117.385,287.57,113.315z"/>
</g>
<g>
	<path style="fill:#153651;" d="M155.313,441.56c-11.321,11.32-26.398,17.556-42.455,17.556c-16.057,0-31.133-6.234-42.452-17.553
		l-10.759,10.761c14.193,14.193,33.091,22.009,53.212,22.008c20.121,0,39.02-7.818,53.213-22.012l3.061-3.06l-10.758-10.76
		L155.313,441.56z"/>
	<path style="fill:#153651;" d="M494.938,200.137c-15.496-20.842-39.891-33.628-65.789-34.665
		c-0.815-20.921-9.177-41.601-25.113-57.538c-15.471-15.471-35.793-24.317-57.535-25.153c-1.013-25.951-13.617-50.1-34.677-65.758
		C296.848,5.887,279.092,0,260.477,0c-27.15,0-53.021,12.992-69.199,34.751c-3.633,4.882-6.766,10.198-9.314,15.801L61.841,290.485
		l-28.065,28.065l-1.158,0.652l-0.492,1.006c-43.099,44.087-42.799,115.019,0.91,158.728C54.357,500.258,82.704,512,112.857,512
		s58.502-11.742,79.823-33.063l28.835-28.835l239.895-120.104c5.6-2.548,10.913-5.682,15.796-9.314
		c18.469-13.731,30.485-33.834,33.833-56.602C514.389,241.314,508.671,218.604,494.938,200.137z M410.078,192.251
		c-0.055,0.158-0.116,0.313-0.172,0.471c-0.307,0.864-0.63,1.727-0.972,2.581c-0.139,0.346-0.287,0.688-0.432,1.031
		c-0.276,0.659-0.557,1.318-0.854,1.97c-0.203,0.445-0.416,0.886-0.629,1.328c-0.261,0.543-0.525,1.084-0.8,1.622
		c-0.256,0.497-0.519,0.99-0.786,1.48c-0.259,0.477-0.521,0.951-0.791,1.42c-0.296,0.517-0.6,1.03-0.909,1.539
		c-0.27,0.442-0.545,0.883-0.825,1.321c-0.326,0.51-0.656,1.02-0.996,1.522c-0.295,0.438-0.601,0.869-0.906,1.302
		c-0.343,0.485-0.687,0.969-1.042,1.445c-0.343,0.459-0.699,0.909-1.053,1.361c-0.341,0.434-0.678,0.87-1.03,1.297
		c-0.434,0.526-0.887,1.042-1.338,1.559c-0.297,0.34-0.585,0.686-0.889,1.021c-0.77,0.848-1.56,1.684-2.379,2.503
		c-0.9,0.9-1.827,1.775-2.779,2.628L290.319,121.473c0.853-0.951,1.729-1.877,2.629-2.775c0.12-0.12,0.247-0.232,0.367-0.351
		c0.68-0.67,1.365-1.33,2.066-1.968c0.493-0.448,1-0.877,1.503-1.311c0.329-0.283,0.653-0.573,0.986-0.851
		c0.672-0.556,1.356-1.094,2.046-1.623c0.162-0.125,0.321-0.255,0.485-0.378c0.811-0.613,1.633-1.205,2.468-1.781
		c0.034-0.023,0.068-0.048,0.103-0.071c10.662-7.321,23.181-11.62,36.282-12.329l0.705-0.039c1.047-0.045,2.097-0.076,3.151-0.076
		c18.95,0,36.763,7.379,50.162,20.779C413.133,138.552,418.733,167.35,410.078,192.251z M164.286,380.43l-32.744-32.744
		l43.956-62.844l51.634,51.634L164.286,380.43z M184.355,272.179l43.962-62.854l74.332,74.332l-62.854,43.961L184.355,272.179z
		 M315.313,274.801l-78.139-78.139l43.962-62.854l97.031,97.031L315.313,274.801z M173.429,261.251l-53.266-53.266l35.636-71.18
		l61.592,61.593L173.429,261.251z M164.572,273.915l-20.657,29.533l-23.299,33.31l-43.265-43.265l35.631-71.168L164.572,273.915z
		 M175.214,391.357l62.845-43.955l51.578,51.578l-71.17,35.631L175.214,391.357z M250.723,338.545l62.854-43.961l61.58,61.58
		L303.979,391.8L250.723,338.545z M260.477,15.217c15.319,0,29.935,4.847,42.268,14.018c17.373,12.918,27.758,32.858,28.555,54.282
		c-13.776,1.879-26.764,7.036-38.053,15.084c-0.169,0.121-0.341,0.237-0.51,0.359c-0.685,0.496-1.36,1.005-2.033,1.523
		c-0.407,0.313-0.813,0.63-1.215,0.95c-0.54,0.431-1.076,0.866-1.608,1.311c-0.569,0.476-1.127,0.964-1.685,1.455
		c-0.393,0.347-0.788,0.687-1.176,1.04c-0.96,0.877-1.907,1.773-2.831,2.697c-0.901,0.901-1.769,1.834-2.631,2.774l-71.939-71.94
		C221.055,23.727,239.981,15.217,260.477,15.217z M195.637,57.234l0.128-0.269c0.873-1.93,1.85-3.807,2.886-5.644l71.558,71.56
		l-43.962,62.854l-63.269-63.268L195.637,57.234z M182.113,467.984l-1.401,1.216l-0.077,0.239
		c-18.294,17.647-42.291,27.343-67.779,27.343c-26.089,0-50.615-10.16-69.063-28.606c-37.996-37.996-38.08-99.768-0.257-137.87
		l24.553-24.551l43.662,43.676l-0.001,0.001l3.878,3.877l7.048,7.05l0.001-0.001l35.339,35.337v0.001l3.567,3.566l0.958,0.958l0,0
		l43.674,43.661L182.113,467.984z M454.86,316.262l-65.362,32.724l-63.258-63.258l62.855-43.962l71.545,71.546
		c-1.839,1.037-3.715,2.015-5.645,2.89L454.86,316.262z M495.986,261.87c-2.439,16.577-10.464,31.429-22.803,42.465l-71.924-71.924
		c0.943-0.861,1.877-1.731,2.776-2.63c0.95-0.951,1.869-1.925,2.769-2.913c0.311-0.342,0.611-0.69,0.914-1.035
		c0.575-0.653,1.144-1.311,1.699-1.979c0.347-0.417,0.688-0.837,1.026-1.259c0.496-0.621,0.98-1.25,1.457-1.883
		c0.332-0.439,0.667-0.875,0.989-1.32c0.527-0.727,1.035-1.466,1.538-2.207c0.364-0.54,0.727-1.079,1.078-1.625
		c0.542-0.839,1.075-1.684,1.588-2.542c0.276-0.463,0.537-0.931,0.803-1.399c0.39-0.68,0.773-1.362,1.143-2.052
		c0.249-0.465,0.49-0.932,0.73-1.4c0.384-0.75,0.756-1.504,1.119-2.264c0.187-0.397,0.378-0.79,0.56-1.188
		c0.467-1.021,0.912-2.049,1.338-3.087c0.057-0.137,0.118-0.273,0.173-0.41c2.658-6.564,4.514-13.463,5.491-20.556
		c21.636,0.794,41.299,11.101,54.275,28.554C494.035,224.423,498.744,243.122,495.986,261.87z"/>
</g>
</svg>