<svg id="Layer_1" enable-background="new 0 0 500 500" viewBox="0 0 500 500" xmlns="http://www.w3.org/2000/svg"><g clip-rule="evenodd" fill-rule="evenodd"><ellipse cx="380.124" cy="247.292" fill="#fa6e85" rx="59.093" ry="59.092" transform="matrix(.843 -.538 .538 .843 -73.341 243.207)"/><path d="m321.198 242.698c-1.047 13.428 2.57 26.929 10.191 38.034 4.769-2.772 10.38-5.352 18.516-7.532 24.575-6.585 31.786 1.661 53.098-4.049 22.752-6.097 38.064-22.731 34.199-37.154s-25.442-21.173-48.195-15.076c-21.355 5.722-23.343 16.433-48.108 23.068-8.066 2.162-14.262 2.725-19.701 2.709z" fill="#fa6e85"/><path d="m169.055 347.898 56.017-4.309c7.238-.557 13.631 4.641 14.564 11.841 2.813 21.729-1.812 51.492-22.826 61.974-2.587 1.29-4.949 2.247-7.846.262-1.861-1.276-2.845-3.269-2.726-5.523l2.099-39.536-47.445 13.631z" fill="#f0b16e"/><path d="m220.481 343.942 4.591-.353c7.238-.557 13.631 4.641 14.564 11.841 2.813 21.729-1.812 51.492-22.826 61.974-2.587 1.29-4.949 2.247-7.846.262-1.861-1.276-2.845-3.269-2.726-5.523l2.099-39.536c7.893-8.105 11.642-17.773 12.144-28.665z" fill="#fa6e85"/><path d="m173.592 269.7 40.208 11.929-26.84 90.469c-3.28 11.058-15.011 17.42-26.068 14.14-11.058-3.281-17.42-15.011-14.14-26.069z" fill="#f0b16e"/><path d="m298.404 389.18 28.633-11.621c2.158-.876 14.234 14.501 16.299 15.577 2.066 1.076 3.456 2.746 4.141 4.972l12.65 41.114c3.325 10.806-1.979 22.26-12.371 26.714l-.788.338c-10.206 4.374-21.902.573-27.588-8.965l-24.15-40.515c-1.353-2.27-3.206-7.553-2.273-10.025.934-2.471 2.999-16.595 5.447-17.589z" fill="#fa6e85"/><g fill="#f0b16e"><path d="m260.983 295.914 47.15 108.444c2.937 6.755 10.723 9.956 17.563 7.221l1.837-.735c6.767-2.707 10.206-10.249 7.812-17.134l-37.663-108.281z"/><path d="m250.684 99.853 20.215-2.61 41.533 27.16 53.403 40.446 39.98 13.327c4.281 1.427 5.717 6.715 2.744 10.111-4.955 5.66-13.056 8.785-20.681 7.091l-27.896-6.199c-9.24-2.053-18.335 1.731-23.391 9.733l-2.253 3.567c-2.594 4.105-7.82 5.571-12.171 3.413l-.955-.474c-4.419-2.192-6.401-7.378-4.569-11.958l7.25-18.125-30.936-21.721-52.649-11.91z"/><path d="m52.589 241.253c-2.46 3.816-1.35 8.951 2.467 11.41 3.816 2.459 9.077 2.101 12.579-.787l19.32-15.936c5.162 3.763 10.483 1.422 14.001-2.047s3.736-7.732 2.135-12.123l34.079-48.684 55.661-29.208 5.243-57.668-83.597 47.183-35.361 71.878z"/></g><path d="m179.104 96.916c-29.955 52.78-26.244 94.973-12.487 157.057l-10.485 57.668 52.426 20.971 26.213-31.455 31.456 26.213 52.426-26.213c-40.757-57.946-56.3-122.417-47.753-203.914-27.904-12.79-57.451-17.84-91.796-.327z" fill="#ffbf31"/><path d="m166.617 253.973-10.485 57.668 52.426 20.971 26.213-31.455 31.456 26.213 52.426-26.213c-17.296-24.59-29.945-51.398-38.128-80.341-28.052 28.904-61.315 48.427-113.908 33.157z" fill="#19cfba"/><path d="m198.519 71.683h47.183v55.048c0 12.976-10.616 23.592-23.592 23.592s-23.592-10.616-23.592-23.592v-55.048z" fill="#f0b16e"/><ellipse cx="221.309" cy="72.228" fill="#f0b16e" rx="40.324" ry="40.324" transform="matrix(.16 -.987 .987 .16 114.564 279.109)"/><path d="m449.918 364.79c-3.576.684-7.225-1.768-7.885-5.53l-6.179-35.335c-.649-3.704 1.832-7.23 5.542-7.885 3.71-.643 7.236 1.832 7.885 5.542l6.179 35.324c.649 3.709-1.832 7.241-5.542 7.884zm-21.937 45.672c.726 4.153-2.542 7.988-6.725 7.988-3.251 0-6.122-2.337-6.702-5.645l-11.468-65.542c-.649-3.71 1.832-7.236 5.542-7.885s7.23 1.832 7.885 5.542zm-44.23-38.959c.72 4.156-2.544 8-6.731 8-3.239 0-6.122-2.337-6.702-5.645l-6.179-35.318c-.649-3.71 1.832-7.247 5.542-7.891 3.71-.655 7.23 1.826 7.885 5.536zm13.311-74.775c-6.748-5.278-12.513-11.71-17.205-18.9 7.006.465 14.46.701 24.906-2.096 9.901-2.653 18.469-7.052 25.113-12.467-4.938 15.264-16.768 27.973-32.814 33.463zm-55.095-13.674c6.733-2.828 15.035-4.908 21.897-5.507 4.336 8.166 9.705 15.603 15.988 22.029-14.276-.063-28.09-6.078-37.885-16.522zm-18.991-87.071 7.247-18.118c1.177-2.934.172-6.3-2.412-8.114l-30.936-21.719c-.724-.511-1.545-.873-2.418-1.074l-18.962-4.29c-.132-10.859.27-22.018 1.171-33.514l31.843 20.817 53.212 40.302c.591.454 1.252.798 1.964 1.039l39.211 13.065c-3.555 3.635-8.889 5.381-13.541 4.347l-27.892-6.202c-12.025-2.682-24.051 2.326-30.632 12.743-2.663 4.22-2.903 5.886-6.587 4.043-1.234-.62-1.779-2.044-1.268-3.325zm-55.814 123.291-28.024-23.361c-2.886-2.401-7.2-2.001-9.608.873l-23.034 27.651-42.663-17.056 8.178-44.965c43.31 10.329 75.957-1.9 104.672-28.329 7.632 22.546 18.239 43.903 31.929 64.462zm57.485 64.427-23.092-66.38-19.577 9.786 32.406 74.535c1.482 3.394 5.335 4.979 8.781 3.606l1.843-.735c3.383-1.355 5.1-5.117 3.899-8.568zm28.966 57.519c2.291 7.442-1.378 15.379-8.539 18.445l-.792.339c-7.087 3.032-15.098.436-19.049-6.185l-24.148-40.521c-.683-1.143-1.482-3.584-1.556-4.68.327-1.011.626-2.372 1.085-4.479l1.269 2.934c4.491 10.356 16.2 14.897 26.342 10.831l1.838-.735c6.099-2.435 10.36-7.471 12.048-13.329zm-149.534-102.852.057-.19.379.149zm28.799 17.935c2.659 20.565-2.182 46.556-19.112 54.998-.264.138-.494.241-.672.327l1.918-36.214c6.271-7.127 10.176-15.511 11.658-25.027 3.165.248 5.789 2.671 6.208 5.916zm-38.005 13.082 5.054-17.033 12.674-.971c-1.367 5.726-3.997 10.756-7.959 15.189zm-21.282 9.165c3.336-1.809 5.76-4.79 6.834-8.396l10.997-37.058-26.399-10.561-11.738 39.567c-3.562 12.017 9.222 22.467 20.306 16.448zm-39.591-211.498c-.965.499-1.792 1.235-2.418 2.125l-34.077 48.681c-3.494 5.01 1.844 8.047-1.332 11.175-3.026 2.986-4.611 1.838-5.197 1.396-2.521-1.832-5.955-1.734-8.356.247l-19.319 15.942c-2.481 2.035-6.153.195-5.054-1.562l26.359-35.743c.235-.327.442-.672.626-1.034l34.428-69.992 43.397-24.498c-6.328 14.713-10.348 29.311-12.249 44.437zm87.307-128.339c18.474 0 33.514 15.029 33.514 33.515 0 18.474-15.04 33.503-33.514 33.503s-33.503-15.029-33.503-33.503c0-18.486 15.029-33.515 33.503-33.515zm-15.971 77.855c10.887 3.938 22.841 3.691 33.555-.615v10.779c0 9.251-7.534 16.774-16.78 16.774-9.251 0-16.774-7.523-16.774-16.774v-10.164zm58.289-15.092c-1.39-.586-2.762-1.143-4.123-1.671-2.044 2.82-4.382 5.398-6.977 7.707v19.221c0 16.763-13.65 30.402-30.413 30.402-16.769 0-30.408-13.639-30.408-30.402v-17.86c-2.601-2.108-4.967-4.479-7.069-7.086-.207.098-.408.189-.609.293-26.192 47.153-24.843 85.469-11.629 146.41 47.877 12.467 77.412-6.834 99.802-28.955-9.901-35.818-12.634-74.685-8.574-118.059zm108.79 162.248c10.305.387 17.023 2.004 28.823-1.16 18.767-5.025 32.216-18.222 29.38-28.806-2.831-10.59-21.081-15.287-39.843-10.262-11.485 3.08-16.585 7.698-24.975 13.053.774 9.315 3.02 18.544 6.615 27.175zm-16.172-62.934c-13.788 7.081-23.539 19.898-27.008 34.594 7.693-.976 16.175-3.492 22.626-6.627.064-9.619 1.528-19.054 4.382-27.967zm46.924-.436c-5.295 2.246-11.187 2.906-16.763 1.671l-14.879-3.308c-2.871 6.805-4.686 13.995-5.519 21.334 5.467-3.595 11.589-7.132 21.242-9.723 9.929-2.659 19.588-3.124 28.065-1.734-3.595-3.261-7.678-6.041-12.146-8.24zm-73.541 60.465c-1.039-3.871-1.591-7.753-1.729-11.594 8.209-.7 17.262-2.937 24.9-5.996 1.018 7.306 2.768 14.33 5.278 21.288-8.002 1.199-16.94 3.82-24.171 7.207-1.797-3.428-3.25-7.069-4.278-10.905zm114.159-30.586c-4.405-16.459-14.759-30.218-28.966-38.976 4.67-7.198 1.304-16.831-6.845-19.554l-38.918-12.967-52.506-39.774c-.126-.092-.258-.184-.39-.264-5.233-3.301-40.875-26.965-42.421-27.651-2.705-1.246-5.324-2.366-7.896-3.388 10.584-30.489-12.092-62.573-44.535-62.573-33.501 0-56.159 34.049-43.679 64.83l-66.5 37.54c-1.2.672-2.159 1.694-2.774 2.929l-35.082 71.33-26.17 35.484c-6.757 9.617-.107 23.918 13.656 23.918 4.008 0 8.005-1.344 11.215-3.985l15.953-13.168c5.955 1.815 12.513.006 17.814-5.22 4.273-4.215 5.909-9.682 4.761-15.683l31.303-44.718 7.781-4.077c-.735 24.625 3.48 49.87 10.084 79.841l-10.239 56.313c-.499 2.716.701 5.404 2.923 6.885l-12.134 40.917c-5.305 17.886 8.218 35.702 26.629 35.702 7.365 0 14.503-3 19.732-8.229l.057.235 14.391-4.135-1.591 29.988c-.41 7.676 5.881 13.828 12.858 13.828 3.325 0 6.053-1.367 7.557-2.119 23.017-11.474 29.914-42.898 26.543-68.941-1.396-10.796-10.992-18.595-21.845-17.768l-11.44.884 22.535-26.916 26.215 21.845c2.409 2.006 5.195 1.97 7.908.615l22.718 52.235c-2.337 2.981-3.526 7.994-5.071 15.218-.293 1.367-.689 3.216-.855 3.761-2.469 6.684 2.762 15.758 2.82 15.85l24.142 40.521c7.597 12.751 22.809 17.399 36.127 11.738l.793-.333c13.576-5.829 20.547-20.863 16.2-34.985l-12.657-41.124c-1.154-3.767-3.555-6.759-6.943-8.706-.815-.77-2.762-2.923-4.215-4.531-2.464-2.734-4.56-5.054-6.449-6.926l-22.529-64.761 7.85-3.928c3.726-1.855 4.923-6.603 2.527-10.015-29.598-42.077-45.39-87.657-48.267-140.472l14.184 3.204 25.423 17.848-5.254 13.111c-3.17 7.948.212 16.797 7.873 20.605 1.938.96 3.256 1.565 5.438 1.935-18.798 31.399-8.602 72.346 23.545 90.907 15.309 8.838 33.103 11.112 50.007 6.587 35.112-9.404 56.016-45.612 46.609-80.717z" fill="#1e2f3f"/></g></svg>