<svg id="Layer_1" enable-background="new 0 0 500 500" viewBox="0 0 500 500" xmlns="http://www.w3.org/2000/svg"><g clip-rule="evenodd" fill-rule="evenodd"><ellipse cx="166.538" cy="81.205" fill="#fa6e85" rx="40.629" ry="40.629" transform="matrix(.866 -.5 .5 .866 -18.291 94.148)"/><path d="m193.438 50.749c-22.318-19.743-58.274-9.437-66.146 19.94-1.196 4.466-1.599 8.956-1.296 13.324 6.042 1.977 12.762 3.08 19.843 3.08 27.138 0 49.441-16.337 47.599-36.344z" fill="#fa6e85"/><path d="m159.796 419.885c47.381-1.117 74.641-46.552 119.836-41.033l22.472 19.442c-47.171 25.671-98.022 39.872-152.623 42.376z" fill="#f0b16e"/><path d="m171.367 406.351 15.809 8.472c-5.294 10.766-12.26 20.125-21.193 27.83-13.605 11.736-24.565 12.168-41.59 16.51-3.758.958-5.979-.716-8.179-3.134-2.659-2.924-2.564-7.409.216-10.218l36.269-36.65c4.992-5.044 12.414-6.161 18.668-2.81z" fill="#fa6e85"/><path d="m102.554 361.169c50.101 7.621 86.449-24.183 125.299-18.563l18.563 23.204c-51.052 16.667-103.637 21.386-157.784 13.922z" fill="#f0b16e"/><path d="m413.451 281.607c-.377 3.566-3.157 5.863-6.671 6.145-6.795.545-13.58.822-20.354.822-9.289 0-13.457.513-17.637-.883-6.454-2.154-9.851-6.717-18.537-9.456-26.408-8.329-51.174-19.402-75.569-31.096l4.217-25.192c25.778 12.587 61.138 28.43 87.82 38.479 15.13 2.689 29.375 7.77 43.022 14.47 2.571 1.262 4.009 3.865 3.709 6.711z" fill="#f0b16e"/><path d="m229.582 189.498 26.928 10.986c49.657 15.723 65.192 63.172 57.777 131.958h-92.303c18.931-21.329 20.171-48.27 5.253-80.336-3.973-8.54-6.111-12.541-9.994-16.85 5.87-13.923 10.106-29.345 12.339-45.758z" fill="#ffbf31"/><path d="m127.432 98.105c7.951 5.581 15.156 12.253 21.685 19.912l13.334-3.61c3.986-1.079 7.995.216 10.596 3.422 2.119 2.611 3.43 4.646 3.09 8.4l-1.294 14.298 17.187 29.317c2.257 3.851 5.319 6.503 9.452 8.189l46.491 18.967c-.469 9.468 1.326 16.918-2.629 25.003-5.779 11.814-19.04 21.426-29.972 11.279-10.727-9.957-21.667-19.518-32.615-29.25-4.141-3.681-7.197-7.367-10.046-12.119l-29.305-48.874c-10.766-10.533-19.914-21.99-27.447-34.371-4.302-7.068 4.984-15.119 11.473-10.563z" fill="#f0b16e"/><path d="m258.808 386.96c-22.02-9.728-40.905-24.853-55.826-43.554 16.172-10.779 27.887-19.66 32.117-34.227 9.99 5.771 20.008 8.168 30.048 8.049z" fill="#19cfba"/><path d="m316.028 299.284c.327 28.384-4.683 61.73-13.924 99.01-14.717-1.453-40.412-9.876-52.942-14.67-4.418-24.179 5.052-43.054 5.464-67.233 20.389 3.55 40.877-4.547 61.402-17.107z" fill="#19cfba"/><path d="m116.393 349.964 14.006 11.205c-7.163 9.624-15.715 17.561-25.899 23.513-15.511 9.067-26.368 7.5-43.898 8.673-3.87.259-5.75-1.792-7.473-4.569-2.083-3.359-1.175-7.752 2.07-10.009l42.328-29.445c5.823-4.052 13.325-3.801 18.866.632z" fill="#fa6e85"/><ellipse cx="248.965" cy="174.913" fill="#f0b16e" rx="34.806" ry="34.805" transform="matrix(.23 -.973 .973 .23 21.53 377.031)"/><path d="m319.044 67.483h119.977c4.929 0 8.961 4.032 8.961 8.96v7.495c0 4.928-4.032 8.961-8.961 8.961h-119.977c-4.929 0-8.961-4.032-8.961-8.961v-7.495c0-4.929 4.032-8.96 8.961-8.96z" fill="#fa6e85"/><path d="m441.17 83.93c0 1.166-.982 2.148-2.142 2.148h-119.976c-1.166 0-2.153-.982-2.153-2.148v-7.494c0-1.166.988-2.148 2.153-2.148h119.977c1.16 0 2.142.982 2.142 2.148v7.494zm-45.482 73.432 21.219-9.631c-.052 6.426.046 12.892.253 19.376zm-54.785 9.907c.212-6.598.31-13.168.253-19.692l21.558 9.786zm37.54-55.877-23.287-11.687h46.01zm38.976 19.554c.477-8.712 1.309-17.274 2.596-25.607l-26.48 13.622zm-38.896-4.261-23.631 12.157 24.315 11.038 23.918-10.854zm-40.308-20.215c1.189 7.936 1.97 16.08 2.423 24.366l22.793-11.721zm100.813-45.809h-119.976c-8.706 0-15.787 7.075-15.787 15.775v7.494c0 8.7 7.081 15.775 15.787 15.775h4.169c6.587 33.486 4.41 72.416 1.545 109.582-.3 3.94 2.852 7.339 6.805 7.339 3.526 0 6.518-2.722 6.788-6.294.712-9.189 1.373-18.486 1.872-27.801l38.976-17.682 38.62 17.532c.511 9.367 1.172 18.704 1.878 27.95.29 3.785 3.658 6.594 7.316 6.271 3.756-.287 6.564-3.566 6.282-7.316-2.866-37.167-5.048-76.097 1.545-109.582h4.181c8.695 0 15.775-7.075 15.775-15.775v-7.494c0-8.699-7.081-15.774-15.776-15.774zm-375.676 168.514 14.937-29.42c1.711-3.354 5.812-4.698 9.171-2.992 3.354 1.711 4.686 5.806 2.986 9.159l-14.948 29.426c-1.72 3.393-5.844 4.673-9.16 2.986-3.354-1.705-4.686-5.805-2.986-9.159zm28.541-52.483 15.557-30.626c1.7-3.348 5.794-4.686 9.159-2.986 3.354 1.706 4.692 5.806 2.992 9.165l-15.557 30.614c-1.724 3.399-5.839 4.692-9.16 2.992-3.353-1.699-4.702-5.805-2.991-9.159zm22.201 57.06 18.29-36.024c1.7-3.354 5.806-4.686 9.16-2.986 3.354 1.706 4.698 5.806 2.986 9.165l-18.29 36.013c-1.721 3.395-5.853 4.667-9.159 2.992-3.354-1.712-4.698-5.806-2.987-9.16zm292.143 47.205c-9.552.762-16.767.712-25.693.856-8.82.142-9.525.123-15.781-3.899-3.061-1.975-6.868-4.416-12.462-6.179-10.963-3.463-22.213-7.586-34.295-12.559-1.2-4.715-2.63-9.217-4.279-13.478 18.641 8.344 36.443 15.775 50.593 21.104.39.144.798.259 1.212.333 13.564 2.406 26.968 6.908 40.997 13.777-.067.016-.171.034-.292.045zm-109.295 109.703c-12.634-2.274-30.27-7.885-41.646-12.031-2.248-18.386 4.154-35.688 5.76-54.676l4.169.086v-.017c13.381-.167 27.68-4.376 43.823-12.91-.884 22.787-4.939 49.456-12.106 79.548zm-135.407 46.826c-12.794 11.039-23.706 11.029-38.826 15.069-.103.029-.172.035-.235.046-.02-.015-1.898-1.289-1.2-1.999l36.271-36.65c2.89-2.925 7.054-3.496 10.607-1.596l9.797 5.249c-4.521 7.695-10.017 14.356-16.414 19.881zm59.959-33.268c-9.217 5.438-18.721 11.026-29.075 15.281-1.935 3.767-4.049 7.368-6.363 10.768 33.147-5.007 65.122-14.782 95.427-29.144-12.1-3.153-25.061-7.477-33.739-10.751-8.815 3.573-17.32 8.586-26.25 13.846zm-94.995-28.087c2.469-2.486 4.835-5.139 7.075-7.936 15.069-1.895 28.725-6.185 41.968-10.337 8.574-2.688 16.757-5.249 24.757-6.977 4.945 5.886 10.216 11.342 15.798 16.355-29.323 6.914-59.351 9.888-89.598 8.895zm-25.435 2.665c-14.035 8.2-25.151 6.75-40.922 7.752-.098.006-.184.006-.235.006-.017-.017-1.633-1.622-.815-2.188l42.324-29.443c3.348-2.326 7.546-2.182 10.722.356l8.683 6.943c-5.837 6.748-12.464 12.301-19.757 16.574zm137.635-60.173c-5.283 10.641-14.414 18.354-25.647 26.175 8.442 9.608 17.865 17.877 28.139 24.728.196-17.052 5.118-31.224 6.352-47.779-2.986-.826-5.943-1.854-8.844-3.124zm-51.408-119.689c10.943 9.759 21.809 19.212 32.722 29.351 2.877 2.676 5.226 2.602 6.748 2.32 5.338-.989 11.979-8.162 13.685-14.954-14.299-2.986-25.922-13.34-30.724-26.899l-10.808-4.41c-5.553-2.269-9.734-5.886-12.76-11.055l-17.194-29.317c-.718-1.229-1.039-2.647-.907-4.06l1.298-14.294c.098-1.108.126-1.384-1.602-3.503-.89-1.097-2.142-1.505-3.514-1.137l-13.34 3.612c-2.544.689-5.249-.149-6.96-2.154-6.231-7.316-13.105-13.621-20.415-18.756-.541-.38-2.146.791-1.74 1.441 7.207 11.841 16.085 22.965 26.399 33.044.408.408.775.873 1.074 1.372l29.305 48.865c2.491 4.165 5.103 7.312 8.733 10.534zm-53.413-126.489c6.159-23.042 33.631-32.583 52.821-18.411-.316 5.651-3.256 10.078-5.863 12.944-10.636 11.665-31.167 15.693-48.032 11.847.155-2.136.511-4.272 1.074-6.38zm65.323 17.504c-2.906 10.86-10.888 19.393-21.288 23.091-4.318-4.944-10.86-6.943-17.24-5.22l-9.24 2.509c-4.784-5.254-9.877-9.992-15.224-14.184-.488-1.011-.936-2.027-1.327-3.061 24.063 3.675 52.407-5.387 62.308-26.147 3.366 7.191 4.09 15.248 2.011 23.012zm49.761 56.973c15.436 0 27.996 12.548 27.996 27.99 0 15.431-12.559 27.984-27.996 27.984-15.431 0-27.99-12.553-27.99-27.984 0-15.442 12.559-27.99 27.99-27.99zm60.166 148.535c-24.165 14.143-45.674 19.776-66.173 10.136 3.279-16.74.092-35.662-9.539-56.37-.965-2.067-1.838-3.894-2.665-5.559 12.313-3.164 21.639-16.224 23.499-27.479 4.64-.592 9.05-1.947 13.093-3.945 26.825 13.748 40.528 41.037 41.785 83.217zm103.622-26.686c-15.034-7.379-29.5-12.266-44.202-14.948-17.831-6.736-41.485-16.832-65.226-27.835-6.432-9.211-14.431-16.774-23.999-22.644 6.977-7.454 11.267-17.446 11.267-28.432 0-22.954-18.675-41.617-41.629-41.617-22.334 0-40.613 17.682-41.571 39.78-4.143-1.683-7.009-2.458-9.481-6.679l-16.08-27.433 1.16-13.249c27.505-10.133 39.368-42.711 24.636-68.235-13.104-22.704-42.081-30.485-64.806-17.366-17.638 10.182-26.74 30.406-22.839 50.232-9.621 2.223-15.191 13.071-9.843 21.868 7.644 12.565 17.021 24.361 27.869 35.071l28.863 48.124c5.462 9.117 10.93 13.351 18.549 20.088 8.35 7.397 16.993 15.058 25.314 22.776 4.212 4.183 6.236 7.927 10.32 16.706 9.32 20.008 11.807 37.672 7.437 52.494-3.606 12.106-13.938 19.985-28.162 29.506-9.596 1.843-18.974 4.772-28.869 7.879-12.312 3.865-25.009 7.839-38.465 9.659l-12.341-9.878c-7.879-6.305-18.738-6.667-27.014-.907l-42.329 29.449c-6.225 4.324-7.965 12.76-3.968 19.192 1.716 2.762 5.442 8.316 13.719 7.781 16.844-1.088 29.88.379 46.883-9.59.907-.534 1.797-1.08 2.688-1.642 9.096.678 18.181 1.045 27.249 1.045 30.953 0 61.614-4.026 91.516-12.014 1.671 1.189 3.365 2.343 5.082 3.463-16.156 7.956-30.914 18.796-47.492 25.572l-12.404-6.644c-8.884-4.772-19.623-3.153-26.721 4.026l-36.277 36.644c-5.324 5.381-5.507 13.989-.408 19.594 3.046 3.365 7.634 7.011 14.902 5.151 16.235-4.155 29.403-4.956 44.362-17.946.781-.683 1.533-1.39 2.297-2.102 46.683-5.013 91.298-18.945 132.628-41.434 1.625-.89 2.877-2.435 3.354-4.347 10.9-43.856 17.483-88.102 12.381-124.818 9.372 3.675 18.325 6.857 27.1 9.619 7.586 2.391 10.893 6.902 18.428 9.424 5.692 1.905 13.398 1.235 19.807 1.235 6.88 0 13.903-.281 20.892-.844 14.381-1.162 17.708-19.739 5.423-25.774z" fill="#1e2f3f"/></g></svg>