<svg id="Capa_1" enable-background="new 0 0 512 512" height="512" viewBox="0 0 512 512" width="512" xmlns="http://www.w3.org/2000/svg"><g><g><path d="m152.539 436.265 9.85 68.235h201.487l2.823-37.831c-17.295-32.178-214.16-30.404-214.16-30.404z" fill="#655e67"/><path d="m141.025 412.417 6.363 92.083h15l-2.664-38.548c5.888.439 12.356.702 19.405.702 43.056 0 140.592-10.999 140.592-10.999 12.417 6.925 27.912 10.9 46.977 11.013l4.048-54.251z" fill="#544f56"/><path d="m358.775 418.794-4.042 2.262s-134.492 24.598-175.604 24.598-57.627-10.43-57.627-10.43-18.622-115.127 7.981-140.4 126.149-41.235 126.149-41.235 97.762 12.415 123.035 36.801c25.273 24.387.121 106.499-19.892 128.404z" fill="#8c818f"/><path d="m347.003 305.867c-4.105.123-7.269 3.704-7.269 7.811v51.561h-145.703c-4.142 0-7.5-3.358-7.5-7.5v-44.061c0-4.107-3.165-7.688-7.269-7.811-4.247-.127-7.731 3.278-7.731 7.497v66.875l153.19 21.442v23.974s-97.536 11-140.592 11-55.446-6.8-55.446-6.8c-1.136-5.61-2.165-11.457-3.096-17.438l-7.1-5-8.719 5c1.374 10.05 3.001 19.984 4.915 29.438 0 0 21.39 9.8 64.446 9.8s140.592-11 140.592-11l35.012-19.598c0-28.976 0-104.35 0-107.693 0-4.219-3.483-7.624-7.73-7.497z" fill="#655e67"/><path d="m125.588 412.417h182.137l-2.66-32.179h-166.216s-5.43-52.263-2.921-68.703c1.548-10.143 8.886-18.438 18.764-21.214l101.993-24.53 99.888 24.53c9.878 2.776 17.216 11.071 18.764 21.214 1.575 10.319 1.07 34.791-2.128 62.267-1.365 11.726-7.662 29.019-14.433 44.991l39.698-22.221c9.547-33.386 12.24-72.587 8.441-97.199-2.681-17.368-15.357-31.521-32.275-36.275l-67.347-16.16v-41.36l-103.32 23.625v17.735l-67.347 16.16c-4.307 1.21-8.332 3.032-11.987 5.358-2.535 7.756-4.004 17.675-5.327 30.176-1.993 18.814-.548 69.929 6.276 113.785z" fill="#f5fcff"/><path d="m119.31 298.632c1.323-12.5 2.792-22.42 5.327-30.176-10.782 6.862-18.336 18.13-20.327 31.176-1.877 12.295-1.223 63.907 5.458 112.786h15.819c-6.823-43.857-8.268-94.972-6.277-113.786z" fill="#d6e0f4"/><path d="m184.681 97.177h141.902c0-16.419 0-31.546 0-40.768 0-27.108-37.544-48.909-70.951-48.909-16.6 0-34.217 5.387-47.746 14.129-17.604 16.894-23.205 75.548-23.205 75.548z" fill="#f5fcff"/><path d="m199.681 97.177s0-33.631 0-40.768c0-12.216 2.774-24.457 8.205-34.78-13.698 8.851-23.205 21.142-23.205 34.78v40.768z" fill="#d6e0f4"/><path d="m326.583 170.695c18.537 0 29-22.981 29-37.893 0-16.008-12.441-26.856-29-18.625h-141.902c-16.559-8.231-29 2.617-29 18.625 0 14.912 10.463 37.893 29 37.893z" fill="#b46e5a"/><path d="m298.793 58.696s-30.236 7-43.161 7c-12.924 0-43.161-7-43.161-7s-1.639 15.248-12.79 27.595c0 0-5 78.507-5 87.373 0 10.246 7.607 28.269 7.607 28.269l76.465 35.107c22.304-13.342 47.83-35.506 47.83-63.376 0-7.94 0-44.645 0-76.487-24.856-11.085-27.79-38.481-27.79-38.481z" fill="#c38778"/><path d="m207.289 201.933c-4.662-8.55-7.607-18.023-7.607-28.269 0-8.866 0-53.594 0-87.373-3.795 4.203-8.688 8.071-15 10.885v76.487c0 29.385 28.378 52.434 51.436 65.479 2.015 1.14 6.285 1.901 11.318 2.289 10.228.789 23.618.027 27.713-2.289 1.189-.672 2.394-1.378 3.606-2.103v-20.382c0-4.207-1.75-8.231-4.864-11.06-5.873-5.337-18.926-12.899-34.4-12.899-10.765 0-24.786 4.931-32.202 9.235z" fill="#b46e5a"/><path d="m200.164 131.231s-4.002 21.255 8.929 21.255c23.81 0 33.336-7.941 33.336-7.941.696-2.722 1.076-5.843 1.076-9.436.001-3.845-25.912-5.137-43.341-3.878z" fill="#d6e0f4"/><path d="m200.164 131.231c-8.829.638-15.483 1.93-15.483 3.879 0 21.376 13.168 26.376 29.412 26.376 13.513 0 24.89-3.47 28.336-16.941-7.361 1.934-16.044 1.941-23.336 1.941-12.931.001-17.572-3.178-18.929-15.255z" fill="#bfc5eb"/><path d="m283.242 131.231s-4.002 21.255 8.929 21.255c20.376 0 33.336-7.941 33.336-7.941.696-2.722 1.076-5.843 1.076-9.436 0-3.845-25.913-5.137-43.341-3.878z" fill="#d6e0f4"/><path d="m283.242 131.231c-8.829.638-15.483 1.93-15.483 3.879 0 21.376 13.168 26.376 29.412 26.376 13.513 0 24.89-3.47 28.336-16.941-7.361 1.934-16.044 1.941-23.336 1.941-12.931.001-17.572-3.178-18.929-15.255z" fill="#bfc5eb"/><path d="m211.953 229.646 48.679 87.361 18.121-22.848v-62.501c0-4.207-1.75-8.231-4.864-11.06-5.873-5.337-18.926-12.899-34.4-12.899-8.205 0-16.543 2.129-23.037 4.922-2.359 4.2-6.744 12.469-4.499 17.025z" fill="#c38778"/><path d="m273.936 309.699-17.143 9.209 40.293 81.76c18.009 36.543 38.981 36.836 83.347 37.003 2.578-3.757 4.976-7.91 7.194-12.376z" fill="#8c818f"/><path d="m300.64 398.188-32.013-64.958-12.995 6.981 33.008 66.977c13.112 26.607 37.746 44.491 78.888 44.491 4.718-3.573 9.017-8.34 12.906-14.008-44.366-.167-65.486-10.45-79.794-39.483z" fill="#655e67"/><path d="m387.628 425.295c4.279-8.615 7.891-18.389 10.845-28.723l-95.571-81.755-27.286 14.658z" fill="#f5fcff"/><path d="m216.085 226.616c-2.245-4.556-1.992-9.795.367-13.995-3.075 1.323-5.741 2.793-7.776 4.26-5.907 4.26-7.81 12.202-4.591 18.735l38.623 78.371 17.924 3.021z" fill="#b46e5a"/><path d="m255.632 323.542 12.995 9.688 34.276-18.413-24.149-20.658-23.116 12.715z" fill="#8a94db"/><path d="m255.638 306.874-12.93 7.112 12.924 26.225 12.995-6.981z" fill="#717ed4"/></g><g><path d="m363.883 512c-.174 0-.349-.006-.525-.018-4.132-.286-7.25-3.867-6.965-8l3.114-45.032c-15.612-.91-29.459-4.518-41.335-10.705-.492.165-1.01.28-1.546.341-3.839.432-94.516 10.568-137.497 10.568-10.34 0-19.491-.551-27.453-1.399l3.195 46.228c.285 4.133-2.833 7.714-6.965 8-4.133.268-7.715-2.833-8-6.965l-3.416-49.436c-16.076-2.936-24.371-6.652-24.932-6.909-2.18-.999-3.751-2.979-4.227-5.33-11.352-56.09-12.845-129.058-10.435-144.843 3.104-20.329 17.901-37.06 37.699-42.623.093-.025.186-.05.279-.072l63.313-15.191-.829-1.683c-3.226-6.547-3.039-13.944.034-20.057-12.392-13.258-19.135-27.227-20.092-41.63-8.191-2.158-15.484-7.936-20.9-16.671-5.146-8.301-8.219-18.683-8.219-27.771 0-10.656 4.552-20.008 12.177-25.016 4.942-3.246 10.723-4.494 16.823-3.721v-47.656c0-16.218 10.845-31.894 29.752-43.008 3.572-2.097 8.166-.906 10.267 2.665 2.099 3.571.905 8.167-2.665 10.267-14.206 8.351-22.354 19.313-22.354 30.076v26.87c10.958-10.416 12.751-24.671 12.837-25.414.246-2.121 1.387-4.053 3.132-5.282 1.745-1.23 3.934-1.677 6.014-1.193 8.181 1.894 31.579 6.807 41.469 6.807 9.859 0 32.01-4.897 39.713-6.784 2.1-.515 4.321-.098 6.093 1.146 1.771 1.242 2.918 3.188 3.148 5.34.089.763 2.056 16.387 14.497 26.871v-28.361c0-9.914-7.123-20.242-19.543-28.337-12.56-8.185-28.974-13.072-43.909-13.072-5.801 0-11.814.72-17.875 2.139-4.035.941-8.069-1.56-9.013-5.593s1.56-8.068 5.593-9.013c7.18-1.68 14.345-2.533 21.295-2.533 37.032 0 78.451 24.124 78.451 56.409v47.656c6.102-.773 11.88.475 16.823 3.721 7.625 5.008 12.177 14.359 12.177 25.016 0 16.47-10.091 39.572-29.134 44.464-.734 10.025-4.796 24.716-19.157 40.624v23.136l15.081 3.618c4.027.967 6.51 5.015 5.543 9.043-.966 4.027-5.009 6.514-9.043 5.543l-20.831-4.998c-3.372-.81-5.75-3.825-5.75-7.293v-15.19c-4.034 3.163-8.531 6.336-13.539 9.491v24.091l72.108 17.708c.08.02.16.04.239.063 12.683 3.563 22.162 14.28 24.149 27.303 1.761 11.537 1.046 35.92-1.761 61.343l13.268 11.35c6.718-29.092 8.554-61.144 5.245-82.578-2.213-14.333-12.709-26.158-26.758-30.162l-17.997-4.317c-4.027-.966-6.51-5.015-5.543-9.043.966-4.027 5.01-6.514 9.043-5.543l18.143 4.353c.093.022.187.047.279.072 19.762 5.554 34.543 22.178 37.657 42.352 3.526 22.848 1.677 55.504-4.827 85.226-4.303 19.66-14.43 54.378-34.714 71.987l-3.428 49.576c-.272 3.953-3.567 6.979-7.473 6.979zm-242.645-75.682c7.408 2.512 26.782 7.836 57.892 7.836 31.865 0 92.653-5.928 120.817-8.865-4.761-4.507-9.008-9.638-12.711-15.372h-56.629c-4.143 0-7.5-3.357-7.5-7.5s3.357-7.5 7.5-7.5h48.553l-8.466-17.179h-131.762c-1.222 0-2.408-.272-3.451-.798-.005-.003-.008-.004-.013-.006-.496-.251-.96-.555-1.386-.906-1.464-1.204-2.474-2.96-2.69-4.992-.001-.008-.002-.016-.003-.022-.181-1.742-3.607-35.028-3.605-57.018 0-5.438.21-10.185.73-13.593 1.987-13.022 11.467-23.739 24.149-27.303.091-.025.183-.049.274-.071l59.143-14.225-7.095-14.396-66.465 15.947c-14.075 4.011-24.587 15.933-26.797 30.408-1.758 11.515-1.071 58.513 4.638 104.153h84.245c4.143 0 7.5 3.357 7.5 7.5s-3.357 7.5-7.5 7.5h-82.17c.852 5.575 1.783 11.065 2.802 16.402zm144.323-92.927 29.807 60.482c12.847 26.068 36.239 39.611 69.546 40.28 4.934-4.244 9.378-10.072 13.322-17.022l-103.593-88.619zm23.257-12.494 96.133 82.238c1.813-4.443 3.476-9.13 4.988-13.994l-88.01-75.287zm-109.787 41.841h84.271l-44.423-90.141-62.283 14.979c-6.963 2.01-12.158 7.919-13.253 15.09-.409 2.679-.579 6.564-.58 11.163-.001 14.375 1.66 35.712 2.889 48.908h18.38v-59.375c0-4.143 3.357-7.5 7.5-7.5s7.5 3.357 7.5 7.5v59.376zm168.203-29.868 19.865 16.994c1.941-21.896 1.97-39.684.823-47.197-1.095-7.176-6.297-13.088-13.268-15.094l-68.401-16.798v9.93l45.98 39.334v-16.676c0-4.143 3.357-7.5 7.5-7.5s7.5 3.357 7.5 7.5v29.507zm-94.629-25.767 6.321 12.825 30.776-16.533-11.882-10.163zm-22.857-46.379 16.22 32.91 25.285-13.909v-18.348c-.002-.106-.002-.213 0-.32v-39.398c0-2.111-.877-4.119-2.407-5.509-4.477-4.068-15.695-10.951-29.356-10.951-10.279 0-21.075 3.907-26.427 7.766-2.929 2.112-3.875 6.038-2.25 9.336l2.521 5.117c7.205-4.748 15.072-7.219 23.155-7.219 2.903 0 5.812.319 8.643.948 4.044.898 6.593 4.904 5.694 8.948-.898 4.043-4.908 6.593-8.948 5.694-1.765-.392-3.577-.591-5.389-.591-5.729 0-11.245 1.953-16.454 5.816l9.573 19.425c.05.094.096.189.14.285zm9.742-70.526c17.053 0 31.905 7.999 39.443 14.849 2.734 2.483 4.782 5.599 6.007 9.03 15.563-11.015 34.144-28.712 34.144-50.413v-9.205c-5.653 3.043-12.867 4.528-21.912 4.528-10.931 0-19.188-2.17-25.247-6.635-6.084-4.483-9.811-11.105-11.127-19.742h-10.33c-1.316 8.637-5.043 15.259-11.127 19.742-6.059 4.465-14.316 6.635-25.247 6.635-9.045 0-16.259-1.485-21.912-4.528v9.205c0 11.646 5.354 23.303 15.929 34.709 7.738-4.367 19.4-8.175 31.379-8.175zm94.593-80.885v41.495c7.004-4.406 14-14.637 14-28.006 0-5.588-2.022-10.252-5.411-12.478-2.718-1.786-5.854-1.708-8.589-1.011zm-170.902 13.489c0 13.369 6.996 23.6 14 28.006v-41.495c-2.732-.695-5.87-.773-8.589 1.012-3.388 2.225-5.411 6.889-5.411 12.477zm112.314 6.774c1.225 10.545 7.363 14.411 21.677 14.411s20.452-3.866 21.677-14.411c-9.573-1.75-33.782-1.75-43.354 0zm-83.079 0c1.225 10.545 7.363 14.411 21.677 14.411s20.452-3.866 21.677-14.411c-9.572-1.75-33.781-1.75-43.354 0zm57.558-11.966h11.316c-.877-3.365.69-6.997 3.929-8.603l29.477-14.617c3.71-1.841 8.211-.325 10.052 3.387 1.84 3.711.323 8.211-3.388 10.051l-11.176 5.542c2.261-.07 4.603-.105 6.987-.105 8.021 0 15.55.408 21.197 1.15.228.029.467.061.715.094v-21.819c-17.622-9.091-24.813-25.198-27.655-34.979-9.655 2.138-26.289 5.484-35.796 5.484-9.618 0-27.379-3.438-37.438-5.564-2.737 9.457-9.559 24.907-26.014 34.161v22.716c.248-.033.487-.064.715-.094 5.647-.742 13.176-1.15 21.197-1.15 2.385 0 4.727.035 6.987.105l-11.176-5.542c-3.711-1.84-5.228-6.34-3.388-10.051 1.841-3.711 6.337-5.229 10.052-3.387l29.477 14.617c3.24 1.607 4.807 5.239 3.93 8.604z"/></g></g></svg>