<svg fill="none" height="512" viewBox="0 0 100 100" width="512" xmlns="http://www.w3.org/2000/svg"><path clip-rule="evenodd" d="m78 35c0 13.7573-9.9217 25.1973-23 27.5549v10.4451h6c2.7614 0 5 2.2386 5 5s-2.2386 5-5 5h-6v5c0 2.7614-2.2386 5-5 5s-5-2.2386-5-5v-5h-6c-2.7614 0-5-2.2386-5-5s2.2386-5 5-5h6v-10.4451c-13.0783-2.3576-23-13.7976-23-27.5549 0-15.464 12.536-28 28-28s28 12.536 28 28zm-28 18c9.9411 0 18-8.0589 18-18s-8.0589-18-18-18-18 8.0589-18 18 8.0589 18 18 18z" fill="#ff7373" fill-rule="evenodd"/></svg>