<svg height="512" viewBox="0 0 256 256" width="512" xmlns="http://www.w3.org/2000/svg"><circle cx="61.142" cy="129.623" fill="#9e9e9e" r="17.248"/><path d="m62.395 129.623a17.22 17.22 0 0 1 8-14.541 17.248 17.248 0 1 0 0 29.082 17.22 17.22 0 0 1 -8-14.541z" fill="#707070"/><path d="m59.42 146.871h3.444a25.75 25.75 0 0 1 25.75 25.75v22.348a0 0 0 0 1 0 0h-54.944a0 0 0 0 1 0 0v-22.348a25.75 25.75 0 0 1 25.75-25.75z" fill="#9e9e9e"/><path d="m70.392 147.992a25.74 25.74 0 0 0 -7.528-1.121h-3.444a25.75 25.75 0 0 0 -25.75 25.75v22.348h18.5v-22.348a25.759 25.759 0 0 1 18.222-24.629z" fill="#707070"/><circle cx="128" cy="30.707" fill="#9e9e9e" r="17.248"/><path d="m129.252 30.707a17.22 17.22 0 0 1 8-14.541 17.248 17.248 0 1 0 0 29.082 17.22 17.22 0 0 1 -8-14.541z" fill="#707070"/><path d="m126.278 47.954h3.444a25.75 25.75 0 0 1 25.75 25.75v22.349a0 0 0 0 1 0 0h-54.944a0 0 0 0 1 0 0v-22.353a25.75 25.75 0 0 1 25.75-25.746z" fill="#f46275"/><path d="m137.25 49.075a25.74 25.74 0 0 0 -7.528-1.121h-3.444a25.75 25.75 0 0 0 -25.75 25.75v22.349h18.5v-22.353a25.759 25.759 0 0 1 18.222-24.625z" fill="#f43075"/><circle cx="128" cy="129.623" fill="#9e9e9e" r="17.248"/><path d="m126.278 146.871h3.444a25.75 25.75 0 0 1 25.75 25.75v22.348a0 0 0 0 1 0 0h-54.944a0 0 0 0 1 0 0v-22.348a25.75 25.75 0 0 1 25.75-25.75z" fill="#9e9e9e"/><circle cx="194.858" cy="129.623" fill="#9e9e9e" r="17.248"/><path d="m193.135 146.871h3.444a25.75 25.75 0 0 1 25.75 25.75v22.348a0 0 0 0 1 0 0h-54.943a0 0 0 0 1 0 0v-22.348a25.75 25.75 0 0 1 25.749-25.75z" fill="#9e9e9e"/><path d="m193.605 129.623a17.22 17.22 0 0 0 -8-14.541 17.248 17.248 0 1 1 0 29.082 17.22 17.22 0 0 0 8-14.541z" fill="#cecece"/><path d="m185.608 147.992a25.74 25.74 0 0 1 7.528-1.121h3.444a25.75 25.75 0 0 1 25.75 25.75v22.348h-18.5v-22.348a25.759 25.759 0 0 0 -18.222-24.629z" fill="#cecece"/><path d="m159.707 183.47h3.444a25.75 25.75 0 0 1 25.75 25.75v22.348a0 0 0 0 1 0 0h-54.944a0 0 0 0 1 0 0v-22.348a25.75 25.75 0 0 1 25.75-25.75z" fill="#9e9e9e"/><circle cx="94.571" cy="166.222" fill="#9e9e9e" r="17.248"/><path d="m92.849 183.47h3.444a25.75 25.75 0 0 1 25.75 25.75v22.348a0 0 0 0 1 0 0h-54.943a0 0 0 0 1 0 0v-22.348a25.75 25.75 0 0 1 25.75-25.75z" fill="#9e9e9e"/><path d="m95.823 166.222a17.22 17.22 0 0 1 8-14.541 17.248 17.248 0 1 0 0 29.082 17.22 17.22 0 0 1 -8-14.541z" fill="#707070"/><path d="m103.821 184.591a25.74 25.74 0 0 0 -7.528-1.121h-3.444a25.75 25.75 0 0 0 -25.749 25.75v22.348h18.5v-22.348a25.759 25.759 0 0 1 18.221-24.629z" fill="#707070"/><path d="m152.179 184.591a25.74 25.74 0 0 1 7.528-1.121h3.444a25.75 25.75 0 0 1 25.75 25.75v22.348h-18.501v-22.348a25.759 25.759 0 0 0 -18.221-24.629z" fill="#cecece"/><circle cx="161.429" cy="166.222" fill="#9e9e9e" r="17.248"/><path d="m160.177 166.222a17.22 17.22 0 0 0 -8-14.541 17.248 17.248 0 1 1 0 29.082 17.22 17.22 0 0 0 8-14.541z" fill="#cecece"/><path d="m78.63 65.374a33.154 33.154 0 1 0 -26.283 32.447l9.807 6.074a4.033 4.033 0 0 0 6.156-3.428v-11.067a33.063 33.063 0 0 0 10.32-24.026z" fill="#f8af23"/><path d="m30.878 63.022a33.319 33.319 0 0 1 23.839-29.5 33.165 33.165 0 1 0 -2.37 64.3l9.807 6.074a4.033 4.033 0 0 0 6.156-3.428v-2.224a33.1 33.1 0 0 1 -37.432-35.222z" fill="#f87023"/><path d="m177.37 65.374a33.154 33.154 0 1 1 26.283 32.447l-9.807 6.074a4.033 4.033 0 0 1 -6.156-3.428v-11.067a33.063 33.063 0 0 1 -10.32-24.026z" fill="#f8af23"/><path d="m243.622 63.022a33.16 33.16 0 0 0 -42.339-29.5 33.154 33.154 0 0 1 -13.593 64.722v2.222a4.033 4.033 0 0 0 6.156 3.428l9.807-6.074a33.178 33.178 0 0 0 39.969-34.8z" fill="#f8d323"/><circle cx="28.265" cy="65.374" fill="#f46275" r="5.167"/><circle cx="45.463" cy="65.374" fill="#f46275" r="5.167"/><circle cx="62.662" cy="65.374" fill="#f46275" r="5.167"/><circle cx="193.338" cy="65.374" fill="#f46275" r="5.167"/><circle cx="210.537" cy="65.374" fill="#f46275" r="5.167"/><circle cx="227.735" cy="65.374" fill="#f46275" r="5.167"/><g fill="#3f3679"><path d="m100.528 97.553h54.944a1.5 1.5 0 0 0 1.5-1.5v-22.353a27.3 27.3 0 0 0 -20.357-26.365 18.748 18.748 0 1 0 -17.231 0 27.3 27.3 0 0 0 -20.356 26.365v22.353a1.5 1.5 0 0 0 1.5 1.5zm11.724-66.846a15.748 15.748 0 1 1 15.748 15.747 15.766 15.766 0 0 1 -15.748-15.747zm-10.224 43a24.277 24.277 0 0 1 24.25-24.25h3.444a24.277 24.277 0 0 1 24.25 24.25v20.846h-51.944z"/><path d="m27.323 241.042h-18a1.5 1.5 0 1 0 0 3h18a1.5 1.5 0 0 0 0-3z"/><path d="m246.68 241.042h-18a1.5 1.5 0 1 0 0 3h18a1.5 1.5 0 0 0 0-3z"/><path d="m218.479 241.042h-180.958a1.5 1.5 0 1 0 0 3h180.958a1.5 1.5 0 1 0 0-3z"/><path d="m9.32 233.068h237.36a1.5 1.5 0 0 0 0-3h-56.28v-20.848a27.076 27.076 0 0 0 -3.177-12.751h35.107a1.5 1.5 0 0 0 1.5-1.5v-22.348a27.3 27.3 0 0 0 -20.357-26.365 18.747 18.747 0 1 0 -17.246-.007 26.979 26.979 0 0 0 -11.764 6.526 18.676 18.676 0 0 0 -26.074 0 27.043 27.043 0 0 0 -11.767-6.527 18.748 18.748 0 1 0 -17.253 0 26.983 26.983 0 0 0 -11.764 6.527 18.676 18.676 0 0 0 -26.073 0 27.018 27.018 0 0 0 -11.765-6.527 18.748 18.748 0 1 0 -17.241.005 27.3 27.3 0 0 0 -20.356 26.368v22.348a1.5 1.5 0 0 0 1.5 1.5h35.106a27.076 27.076 0 0 0 -3.176 12.751v20.848h-56.28a1.5 1.5 0 1 0 0 3zm123.137-3h-8.913v-20.848a27.076 27.076 0 0 0 -3.177-12.751h15.267a27.076 27.076 0 0 0 -3.177 12.751zm54.944 0h-51.944v-20.848a24.277 24.277 0 0 1 24.25-24.25h3.444a24.277 24.277 0 0 1 24.25 24.25zm-8.291-100.445a15.748 15.748 0 1 1 15.748 15.748 15.766 15.766 0 0 1 -15.748-15.748zm17.47 18.748a24.277 24.277 0 0 1 24.25 24.25v20.848h-35.463a27.329 27.329 0 0 0 -15.322-10.614 18.678 18.678 0 0 0 6.4-27.817 24.031 24.031 0 0 1 16.7-6.667zm-35.151 2.1a15.748 15.748 0 1 1 -15.748 15.748 15.766 15.766 0 0 1 15.748-15.744zm-49.177-20.852a15.748 15.748 0 1 1 15.748 15.752 15.766 15.766 0 0 1 -15.748-15.748zm17.47 18.748a24.078 24.078 0 0 1 16.694 6.67 18.678 18.678 0 0 0 6.4 27.814 27.329 27.329 0 0 0 -15.323 10.614h-18.984a27.329 27.329 0 0 0 -15.323-10.614 18.678 18.678 0 0 0 6.4-27.816 24.036 24.036 0 0 1 16.7-6.668zm-35.151 2.1a15.748 15.748 0 1 1 -15.748 15.748 15.766 15.766 0 0 1 15.748-15.74zm-49.176-20.844a15.748 15.748 0 1 1 15.748 15.748 15.766 15.766 0 0 1 -15.748-15.748zm-10.225 63.846v-20.848a24.277 24.277 0 0 1 24.25-24.25h3.444a24.06 24.06 0 0 1 16.694 6.67 18.678 18.678 0 0 0 6.4 27.815 27.329 27.329 0 0 0 -15.322 10.614zm33.43 15.751a24.277 24.277 0 0 1 24.25-24.25h3.444a24.277 24.277 0 0 1 24.25 24.25v20.848h-51.944z"/><path d="m45.463 100.041a34.912 34.912 0 0 0 6.6-.632l9.3 5.761a5.533 5.533 0 0 0 8.446-4.7v-10.431a34.34 34.34 0 0 0 10.321-24.665 34.792 34.792 0 0 0 -11.017-25.348 34.667 34.667 0 0 0 -49 49 34.792 34.792 0 0 0 25.35 11.015zm-31.588-36.916a31.668 31.668 0 0 1 63.255 2.25 31.384 31.384 0 0 1 -9.854 22.943 1.5 1.5 0 0 0 -.466 1.082v11.062a2.533 2.533 0 0 1 -3.866 2.153l-9.806-6.074a1.5 1.5 0 0 0 -1.1-.192 31.689 31.689 0 0 1 -29.728-9.372 31.423 31.423 0 0 1 -8.435-23.852z"/><path d="m186.19 100.466a5.465 5.465 0 0 0 2.841 4.833 5.465 5.465 0 0 0 5.605-.129l9.3-5.761a34.687 34.687 0 0 0 31.946-10.385 34.667 34.667 0 0 0 -49-49 34.792 34.792 0 0 0 -11.012 25.35 34.34 34.34 0 0 0 10.32 24.665zm-7.32-35.092a31.785 31.785 0 0 1 10.064-23.155 31.36 31.36 0 0 1 21.578-8.513q1.132 0 2.274.079a31.668 31.668 0 1 1 -8.824 62.568 1.5 1.5 0 0 0 -1.1.192l-9.806 6.074a2.533 2.533 0 0 1 -3.867-2.153v-11.066a1.5 1.5 0 0 0 -.466-1.087 31.384 31.384 0 0 1 -9.853-22.939z"/><path d="m28.265 72.041a6.667 6.667 0 1 0 -6.665-6.667 6.674 6.674 0 0 0 6.665 6.667zm0-10.333a3.667 3.667 0 1 1 -3.665 3.666 3.671 3.671 0 0 1 3.665-3.667z"/><path d="m45.463 72.041a6.667 6.667 0 1 0 -6.663-6.667 6.674 6.674 0 0 0 6.663 6.667zm0-10.333a3.667 3.667 0 1 1 -3.663 3.666 3.671 3.671 0 0 1 3.663-3.667z"/><path d="m62.662 72.041a6.667 6.667 0 1 0 -6.667-6.667 6.674 6.674 0 0 0 6.667 6.667zm0-10.333a3.667 3.667 0 1 1 -3.667 3.667 3.671 3.671 0 0 1 3.667-3.668z"/><path d="m193.338 72.041a6.667 6.667 0 1 0 -6.667-6.667 6.674 6.674 0 0 0 6.667 6.667zm0-10.333a3.667 3.667 0 1 1 -3.667 3.667 3.671 3.671 0 0 1 3.667-3.668z"/><path d="m210.537 72.041a6.667 6.667 0 1 0 -6.667-6.667 6.674 6.674 0 0 0 6.667 6.667zm0-10.333a3.667 3.667 0 1 1 -3.667 3.667 3.671 3.671 0 0 1 3.667-3.668z"/><path d="m227.735 72.041a6.667 6.667 0 1 0 -6.667-6.667 6.674 6.674 0 0 0 6.667 6.667zm0-10.333a3.667 3.667 0 1 1 -3.667 3.667 3.671 3.671 0 0 1 3.667-3.668z"/></g></svg>