<svg fill="none" height="512" viewBox="0 0 100 100" width="512" xmlns="http://www.w3.org/2000/svg"><path clip-rule="evenodd" d="m76.4218 17-20.2179 20.2178c-12.1396-8.7577-29.1806-7.6736-40.1067 3.2525-12.12961 12.1296-12.12961 31.7957 0 43.9253 12.1297 12.1297 31.7957 12.1297 43.9254 0 10.926-10.926 12.0102-27.9671 3.2524-40.1067l20.2177-20.2177v17.2124c0 2.7614 2.2386 5 5 5s5-2.2386 5-5v-26.2836c0-4.4183-3.5817-8-8-8h-26.2836c-2.7614 0-5 2.23858-5 5 0 2.7614 2.2386 5 5 5zm-53.2535 60.3246c8.2244 8.2244 21.5588 8.2244 29.7832 0s8.2244-21.5588 0-29.7832-21.5588-8.2244-29.7832 0-8.2244 21.5588 0 29.7832z" fill="#21a8e4" fill-rule="evenodd"/></svg>