<svg version="1.1" id="Layer_1" xmlns="http://www.w3.org/2000/svg" xmlns:xlink="http://www.w3.org/1999/xlink" x="0px" y="0px" viewBox="0 0 512 512" style="enable-background:new 0 0 512 512;" xml:space="preserve">
<g>
	<g>
		<polygon style="fill:#6864F7;" points="132.237,348.523 43.448,437.311 30.028,442.921 10,462.949 49.051,502 69.079,481.972 &#10;&#9;&#9;&#9;74.689,468.552 163.477,379.763 &#9;&#9;"/>
		<path style="fill:#67CCD1;" d="M132.237,348.523l2.464-2.464c20.722-20.722,30.977-51.074,26.051-79.962l-10.175-59.661&#10;&#9;&#9;&#9;c-4.927-28.888,4.461-58.372,25.183-79.094l90.873-90.873c35.292-35.292,92.511-35.292,127.803,0l81.097,81.097&#10;&#9;&#9;&#9;c35.292,35.292,35.292,92.511,0,127.803L374.803,346.096c-20.722,20.722-40.351,20.254-69.239,15.328l-59.661-10.175&#10;&#9;&#9;&#9;c-28.888-4.927-59.24,5.329-79.962,26.051l-2.464,2.464L132.237,348.523z"/>
		<path style="fill:#27A2CC;" d="M231.422,148.164c0-38.59,10.621-74.695,29.084-105.57l-84.748,84.748&#10;&#9;&#9;&#9;c-20.722,20.722-30.109,50.206-25.183,79.094l10.175,59.661c4.927,28.888-5.329,59.24-26.051,79.962l-2.464,2.464l31.241,31.241&#10;&#9;&#9;&#9;l2.464-2.464c20.722-20.722,51.074-30.977,79.962-26.051l59.661,10.175c28.888,4.927,48.517,5.394,69.239-15.328l1.232-1.232&#10;&#9;&#9;&#9;C292.246,318.74,231.422,240.556,231.422,148.164z"/>
		<path style="fill:#FDCB50;" d="M490.422,137.219l-258.171-7.469l-43.034,59.481l69.312,61.137l207.217,4.785l9.786-9.786&#10;&#9;&#9;&#9;C504.835,216.065,509.782,171.653,490.422,137.219z"/>
		<path style="fill:#FD8F01;" d="M231.422,148.164c0-6.207,0.291-12.346,0.828-18.413l-57.223-1.655&#10;&#9;&#9;&#9;c-20.206,20.68-29.319,49.798-24.452,78.341l7.095,41.604l100.857,2.329C241.283,220.249,231.422,185.359,231.422,148.164z"/>
	</g>
	<g>
		<path style="fill:none;stroke:#052A75;stroke-width:20;stroke-linejoin:round;stroke-miterlimit:10;" d="M132.237,348.523&#10;&#9;&#9;&#9;l2.464-2.464c20.722-20.722,30.977-51.074,26.051-79.962l-10.175-59.661c-4.927-28.888,4.461-58.372,25.183-79.094l90.873-90.873&#10;&#9;&#9;&#9;c35.292-35.292,92.511-35.292,127.803,0l81.097,81.097c35.292,35.292,35.292,92.511,0,127.803L374.803,346.096&#10;&#9;&#9;&#9;c-20.722,20.722-40.351,20.254-69.239,15.328l-59.661-10.175c-28.888-4.927-59.24,5.329-79.962,26.051l-2.464,2.464"/>
		
			<polygon style="fill:none;stroke:#052A75;stroke-width:20;stroke-linecap:round;stroke-linejoin:round;stroke-miterlimit:10;" points="&#10;&#9;&#9;&#9;132.237,348.523 43.448,437.311 30.028,442.921 10,462.949 49.051,502 69.079,481.972 74.689,468.552 163.477,379.763 &#9;&#9;"/>
		
			<line style="fill:none;stroke:#052A75;stroke-width:20;stroke-miterlimit:10;" x1="43.448" y1="437.311" x2="74.689" y2="468.552"/>
		
			<line style="fill:none;stroke:#052A75;stroke-width:20;stroke-linecap:round;stroke-linejoin:round;stroke-miterlimit:10;" x1="132.237" y1="411.004" x2="100.996" y2="379.763"/>
	</g>
</g>
<g>
</g>
<g>
</g>
<g>
</g>
<g>
</g>
<g>
</g>
<g>
</g>
<g>
</g>
<g>
</g>
<g>
</g>
<g>
</g>
<g>
</g>
<g>
</g>
<g>
</g>
<g>
</g>
<g>
</g>
</svg>