<svg id="Icons" height="512" viewBox="0 0 60 60" width="512" xmlns="http://www.w3.org/2000/svg"><path d="m5.739 53.47a.5.5 0 0 1 -.3-.9l1.142-.848-2.914 1.678a.5.5 0 0 1 -.559-.826l4.443-3.474-5.936 3.422a.5.5 0 0 1 -.551-.832l5.171-3.9-4.846 2.8a.5.5 0 0 1 -.539-.84l2.969-2.11-2.161 1.25a.5.5 0 0 1 -.532-.846l.563-.384a.5.5 0 0 1 -.377-.895l3.75-2.79-2.891 1.669a.5.5 0 0 1 -.538-.841l1.167-.825-.4.232a.5.5 0 0 1 -.539-.841l.778-.55-.021.012a.5.5 0 0 1 -.553-.831l2.5-1.876-1.675.967a.5.5 0 0 1 -.565-.821l3.595-2.915-2.685 1.55a.5.5 0 0 1 -.564-.821l2.868-2.316-1.989 1.148a.5.5 0 0 1 -.558-.826l1.63-1.274-.814.47a.5.5 0 0 1 -.555-.829l.815-.628-.034.02a.5.5 0 0 1 -.589-.8l2.878-2.658-1.917 1.109a.5.5 0 0 1 -.569-.817l1.008-.836-.2.112a.5.5 0 0 1 -.6-.791l2.1-2.048-1.158.668a.5.5 0 0 1 -.6-.786l1.613-1.613-.688.4a.5.5 0 0 1 -.6-.786l1.014-1.016-.139.08a.5.5 0 0 1 -.6-.787l.612-.609a.467.467 0 0 1 -.413-.181.5.5 0 0 1 .006-.644l.776-.9a.5.5 0 0 1 -.487-.137.5.5 0 0 1 -.062-.614l.955-1.5a.5.5 0 0 1 -.637-.668l.746-1.727a.508.508 0 0 1 -.207-.086.5.5 0 0 1 -.2-.5l.433-2.231a.5.5 0 0 1 .208-.633l.1-.059a.5.5 0 0 1 .742.527l-.293 1.512a.494.494 0 0 1 .546.08.5.5 0 0 1 .125.573l-.678 1.537.361-.208a.5.5 0 0 1 .672.7l-.947 1.494.639-.369a.5.5 0 0 1 .629.758l-.743.861.393-.226a.5.5 0 0 1 .6.787l-.464.462.1-.056a.5.5 0 0 1 .6.786l-1.008 1.015.689-.4a.5.5 0 0 1 .6.786l-1.607 1.615 1.332-.768a.5.5 0 0 1 .6.791l-2.105 2.052 1.855-1.071a.5.5 0 0 1 .569.818l-1.006.835.687-.4a.5.5 0 0 1 .589.8l-2.875 2.658 2.673-1.54a.5.5 0 0 1 .554.829l-.809.624.488-.282a.5.5 0 0 1 .558.827l-1.636 1.275 1.344-.776a.5.5 0 0 1 .564.822l-2.865 2.313 2.624-1.515a.5.5 0 0 1 .565.822l-3.594 2.912 3.385-1.951a.5.5 0 0 1 .549.833l-2.5 1.877 2.236-1.29a.5.5 0 0 1 .539.84l-.781.553.466-.269a.5.5 0 0 1 .538.84l-1.163.822.858-.494a.5.5 0 0 1 .549.834l-3.761 2.791 3.528-2.037a.5.5 0 0 1 .532.846l-.254.173a.5.5 0 0 1 .471.873l-2.972 2.111 2.71-1.564a.5.5 0 0 1 .551.832l-5.166 3.897 4.988-2.879a.5.5 0 0 1 .558.827l-4.446 3.484 4.256-2.456a.5.5 0 0 1 .548.834l-1.14.848.831-.48a.5.5 0 0 1 .562.823l-.843.675.52-.3a.5.5 0 0 1 .608.783l-.969.99.641-.37a.5.5 0 0 1 .74.534l-.237 1.139a.5.5 0 0 1 .343.924l-.8.462a.506.506 0 0 1 -.543-.028.5.5 0 0 1 -.2-.507l.229-1.1-2.832 1.629a.5.5 0 0 1 -.608-.782l.969-.99-3.07 1.772a.5.5 0 0 1 -.563-.823l.846-.677-2.6 1.5a.493.493 0 0 1 -.249.07z" fill="#adc7c8"/><path d="m25.167 53.47a.5.5 0 0 1 -.264-.925l3.975-2.463-5.751 3.318a.5.5 0 0 1 -.518-.854l13.141-8.335-15.921 9.189a.5.5 0 0 1 -.518-.854l16.707-10.623-19.885 11.477a.5.5 0 0 1 -.517-.855l18.132-11.433-20.393 11.774a.5.5 0 0 1 -.509-.86l4.676-2.843-4.745 2.739a.5.5 0 0 1 -.513-.858l15.322-9.491-15.062 8.7a.5.5 0 0 1 -.513-.858l15.541-9.632-15.268 8.811a.5.5 0 0 1 -.509-.861l.94-.568-.586.338a.5.5 0 0 1 -.678-.174.5.5 0 0 1 .161-.682l21.145-13.339-20.93 12.083a.5.5 0 0 1 -.509-.861l.891-.539-.538.311a.5.5 0 0 1 -.511-.86l7.383-4.5-7.056 4.074a.5.5 0 0 1 -.514-.857l18.227-11.384-17.978 10.378a.5.5 0 0 1 -.515-.856l18.567-11.608-18.322 10.579a.5.5 0 0 1 -.515-.857l19.717-12.377-19.486 11.249a.5.5 0 0 1 -.512-.858l9.982-6.125-9.67 5.583a.5.5 0 0 1 -.515-.857l14.288-8.913-14.012 8.087a.5.5 0 0 1 -.519-.854l16.582-10.575-16.349 9.439a.5.5 0 0 1 -.517-.855l12.592-7.994-12.318 7.115a.5.5 0 0 1 -.512-.859l1.548-.955-1.2.691a.5.5 0 0 1 -.517-.856l7.645-4.842-7.338 4.236a.5.5 0 0 1 -.526-.85l11.393-7.562-11.149 6.437a.5.5 0 0 1 -.517-.855l.7-.439-.338.194a.5.5 0 0 1 -.521-.852l3.375-2.174-3.038 1.753a.5.5 0 0 1 -.538-.842l8.044-5.659-7.792 4.5a.5.5 0 0 1 -.524-.851l.553-.362-.187.108a.5.5 0 0 1 -.533-.845l2.479-1.7-2.134 1.228a.5.5 0 0 1 -.536-.843l1.448-1.011-1.085.628a.5.5 0 0 1 -.577-.811l3.469-3.009-3.179 1.833a.5.5 0 0 1 -.623-.764l1.9-2.13-1.558.9a.5.5 0 0 1 -.645-.738l.535-.694a.5.5 0 0 1 -.157-.923l1.65-.958a.5.5 0 0 1 .645.738l-.34.441 2.049-1.179a.5.5 0 0 1 .623.764l-1.892 2.128 5.012-2.892a.5.5 0 0 1 .577.81l-3.469 3.007 6.616-3.817a.5.5 0 0 1 .536.842l-1.45 1.013 3.215-1.855a.5.5 0 0 1 .533.844l-2.47 1.696 4.4-2.54a.5.5 0 0 1 .524.85l-.561.368 2.111-1.218a.5.5 0 0 1 .538.841l-8.04 5.659 11.256-6.5a.5.5 0 0 1 .52.852l-3.377 2.175 5.245-3.027a.5.5 0 0 1 .516.855l-.7.443 2.25-1.3a.5.5 0 0 1 .526.849l-11.396 7.562 14.568-8.409a.5.5 0 0 1 .518.855l-7.639 4.838 9.862-5.693a.5.5 0 0 1 .512.858l-1.563.964 3.157-1.822a.5.5 0 0 1 .518.854l-12.591 7.991 15.325-8.845a.5.5 0 0 1 .518.854l-16.581 10.574 19.8-11.43a.5.5 0 0 1 .515.856l-14.285 8.911 16.683-9.632a.5.5 0 0 1 .512.859l-10 6.137 10.526-6.076a.5.5 0 0 1 .516.857l-19.71 12.37 19.581-11.3a.5.5 0 0 1 .515.857l-18.569 11.602 18.324-10.578a.5.5 0 0 1 .514.856l-18.238 11.389 17.989-10.385a.5.5 0 0 1 .511.86l-7.358 4.487 7.031-4.059a.5.5 0 0 1 .509.861l-.87.526.516-.3a.5.5 0 0 1 .517.856l-21.145 13.348 20.931-12.089a.5.5 0 0 1 .509.86l-.94.568.586-.338a.5.5 0 0 1 .514.858l-15.533 9.627 15.258-8.81a.5.5 0 0 1 .514.858l-15.339 9.504 15.068-8.7a.5.5 0 0 1 .509.86l-4.655 2.83 4.317-2.491a.5.5 0 0 1 .516.855l-18.143 11.44 17.903-10.332a.5.5 0 0 1 .518.855l-16.707 10.621 16.474-9.508a.5.5 0 0 1 .518.855l-13.142 8.335 12.871-7.431a.5.5 0 0 1 .514.857l-3.961 2.456 3.625-2.092a.5.5 0 0 1 .516.855l-6.917 4.359 6.6-3.812a.5.5 0 0 1 .525.85l-11.665 7.714 11.416-6.592a.5.5 0 0 1 .531.846l-10.222 6.912 9.98-5.761a.5.5 0 0 1 .53.847l-6.975 4.693 6.686-3.859a.5.5 0 0 1 .539.841l-7 4.966 6.731-3.887a.5.5 0 0 1 .535.843l-3.533 2.46 3.206-1.851a.5.5 0 0 1 .56.826l-4.41 3.477 4.125-2.381a.5.5 0 0 1 .584.8l-2.952 2.654 2.644-1.525a.5.5 0 0 1 .654.726l-1.457 2.01 1.044-.6a.5.5 0 1 1 .5.865l-3.072 1.776a.5.5 0 0 1 -.654-.726l1.457-2.009-4.74 2.735a.5.5 0 0 1 -.584-.8l2.952-2.655-5.994 3.455a.5.5 0 0 1 -.559-.825l4.408-3.475-7.451 4.3a.5.5 0 0 1 -.536-.842l3.532-2.458-5.719 3.3a.5.5 0 0 1 -.539-.84l7-4.968-10.063 5.808a.5.5 0 0 1 -.53-.847l6.975-4.693-9.6 5.54a.5.5 0 0 1 -.53-.846l10.225-6.911-13.436 7.757a.5.5 0 0 1 -.525-.849l11.663-7.713-14.835 8.562a.5.5 0 0 1 -.517-.855l6.909-4.345-9.02 5.2a.5.5 0 0 1 -.25.07z" fill="#d6e6e7"/><g fill="#5b6a7c"><path d="m15.222 15.313a.5.5 0 0 1 -.4-.8l1.112-1.513-1.613.931a.5.5 0 0 1 -.635-.75l1.614-1.965-1.3.749a.5.5 0 0 1 -.6-.788l.646-.638-.243.14a.5.5 0 0 1 -.6-.076.5.5 0 0 1 -.087-.6l.908-1.635-.092.054a.5.5 0 1 1 -.5-.865l1.655-.957a.5.5 0 0 1 .687.675l-.908 1.635 2.045-1.181a.5.5 0 0 1 .6.789l-.648.639.324-.186a.5.5 0 0 1 .636.75l-1.61 1.959 1.28-.74a.5.5 0 0 1 .653.729l-1.116 1.522.67-.386a.5.5 0 1 1 .5.865l-2.728 1.575a.49.49 0 0 1 -.25.068z"/><path d="m25.039 15.229a.5.5 0 0 1 -.407-.79l1.314-1.839-1.7.979a.5.5 0 0 1 -.641-.744l1.717-2.151-1.4.806a.5.5 0 0 1 -.618-.77l.922-1.006-.531.307a.5.5 0 0 1 -.652-.73l.591-.8a.5.5 0 0 1 -.209-.93l1.662-.961a.5.5 0 0 1 .652.729l-.458.619 1.275-.735a.5.5 0 0 1 .618.77l-.925 1.007.866-.5a.5.5 0 0 1 .641.744l-1.716 2.152 1.4-.807a.5.5 0 0 1 .658.723l-1.314 1.844.936-.541a.5.5 0 0 1 .5.866l-2.928 1.691a.489.489 0 0 1 -.253.067z"/><path d="m35.186 15.3a.5.5 0 0 1 -.415-.78l1.3-1.921-1.811 1.042a.5.5 0 0 1 -.638-.749l1.655-2.03-1.328.767a.5.5 0 0 1 -.595-.793l.384-.37a.5.5 0 0 1 -.648-.709l.8-1.315a.5.5 0 0 1 -.645-.2.5.5 0 0 1 .183-.682l1.659-.96a.5.5 0 0 1 .677.693l-.8 1.312 1.844-1.063a.5.5 0 0 1 .595.793l-.38.365.115-.065a.5.5 0 0 1 .637.749l-1.656 2.03 1.33-.768a.5.5 0 0 1 .664.713l-1.3 1.92.888-.512a.5.5 0 1 1 .5.865l-2.767 1.6a.5.5 0 0 1 -.248.068z"/><path d="m44.921 15.156a.5.5 0 0 1 -.364-.843l.539-.573-.7.406a.5.5 0 0 1 -.607-.784l.854-.869-.512.295a.5.5 0 0 1 -.609-.788l.846-.852-.453.261a.5.5 0 0 1 -.61-.779l.718-.746-.315.181a.5.5 0 0 1 -.655-.725l.616-.854a.5.5 0 0 1 -.239-.932l1.657-.954a.5.5 0 0 1 .621.1.5.5 0 0 1 .034.628l-.513.71 1.36-.784a.5.5 0 0 1 .61.779l-.72.748.625-.36a.5.5 0 0 1 .605.785l-.846.852.453-.261a.5.5 0 0 1 .607.783l-.852.867.459-.264a.5.5 0 0 1 .615.775l-.54.574.107-.061a.5.5 0 1 1 .5.865l-3.041 1.756a.489.489 0 0 1 -.25.064z"/></g><path d="m27.492 45.4a.5.5 0 0 1 -.334-.872l2.795-2.505-3.685 2.127a.5.5 0 0 1 -.553-.83l5.216-3.975-5.876 3.391a.5.5 0 0 1 -.608-.782l.239-.243-.341.2a.5.5 0 0 1 -.61-.78l.289-.3-.405.234a.5.5 0 0 1 -.663-.715l1.072-1.568-1.582.913a.5.5 0 0 1 -.661-.716l1.058-1.532-1.555.9a.5.5 0 0 1 -.6-.787l.069-.07-.12.07a.5.5 0 0 1 -.7-.66l.806-1.576-.187.109a.5.5 0 1 1 -.5-.865l1.654-.956a.5.5 0 0 1 .7.66l-.81 1.567 2-1.151a.5.5 0 0 1 .6.788l-.067.066.137-.078a.5.5 0 0 1 .661.717l-1.061 1.531 1.563-.9a.5.5 0 0 1 .617.092.5.5 0 0 1 .046.622l-1.073 1.568 1.59-.918a.5.5 0 0 1 .61.78l-.289.3.41-.236a.5.5 0 0 1 .607.782l-.239.244 9.493-5.48a.5.5 0 0 1 .553.831l-5.215 3.974 1.075-.62a.5.5 0 0 1 .584.8l-3.571 3.2a.5.5 0 0 1 .037.885l-2.926 1.689a.489.489 0 0 1 -.25.075z" fill="#73c581"/><path d="m28.911 39.409a.5.5 0 0 1 -.291-.907l4.942-3.527-1.3.75a.5.5 0 0 1 -.531-.847l2.3-1.562a.5.5 0 0 1 -.329-.22.5.5 0 0 1 .131-.678l4.75-3.382-1.169.675a.5.5 0 0 1 -.56-.825l5.115-4.041-.759.437a.5.5 0 0 1 -.6-.793l3.242-3.122a.447.447 0 0 1 -.058-.082.5.5 0 0 1 .182-.682l1.73-1a.5.5 0 0 1 .6.792l-2.048 1.972 3.169-1.829a.5.5 0 0 1 .559.825l-5.114 4.041 4.315-2.491a.5.5 0 0 1 .54.84l-4.753 3.384 1.173-.677a.5.5 0 0 1 .531.847l-2.3 1.561a.5.5 0 0 1 .2.9l-4.953 3.532 1.311-.756a.5.5 0 0 1 .5.865l-10.275 5.933a.494.494 0 0 1 -.25.067z" fill="#73c581"/><path d="m6.546 12.008c-2.146 11.635-3.708 23.443-5.66 35.134-.317 2.228-1.654 6.064 1.838 6.186 16.109.2 32.222.154 48.36.154 13.028 1.706 7.57-6.174 6.956-14.606q-1.8-12.6-3.6-25.2c-.023-3.44-3.39-3.316-6.042-3.155.616-5.209-6.766-5.138-5.6-.076h-4.414c.557-5.333-6.994-4.785-5.548.25h-4.414c.652-5.41-6.886-5.369-5.6-.089h-4.413c.657-5.247-6.811-5.151-5.6-.083-2.104.177-4.972-.709-6.263 1.485zm-2.42 40.664c-3.34.339-2.2-3.429-1.852-5.462q2.321-14.694 4.643-29.387c2.029 11.523 2.619 23.591 5.4 34.849zm40.714-45.182c2.14-.868 3.268 6.642 1.541 7.066-2.071.354-2.996-6.267-1.541-7.066zm-9.947-.09c2.061-.691 3.211 6.816 1.5 7.221-2.076.31-3.064-6.48-1.5-7.221zm-10.056.08c2.143-.86 3.271 6.652 1.546 7.086-2.074.342-2.997-6.266-1.546-7.086zm-9.951-.109c2.542.171 2.193 4.576 2.255 6.465-2.179 3.623-4.141-5.778-2.255-6.465zm-1.829 4.751c-.432 4.824 7.092 3.7 5.475-.723h4.413c-.607 5.418 7.019 5.159 5.573-.089h4.414c-.7 5.209 6.761 5.378 5.625.25h4.413c-.578 5.22 6.9 4.951 5.573-.088 4.444-.866 4.591 2.146 4.888 5.683q2.288 16 4.574 32c1.076 3.635-1.159 3.66-4.083 3.36h-33.488c-1.912-.006-3.83.01-5.739 0-3.346-1.977-2.068-10.458-3.352-14.242q-1.786-12.54-3.584-25.085c-.065-2.77 3.491-1.38 5.2-1.706z" fill="#262626"/><path d="m23.515 41.881c2.085 3.319 5.108 4.877 7.719 1.119 5.634-6.595 11.31-13.162 16.937-19.76 2.082-2.974-2.466-4.757-4.352-2.474-5.248 6.067-10.432 12.207-15.674 18.286-2.084-1.8-3.327-5.734-6.564-5.237-5.128 1.585.165 5.847 1.934 8.066zm-.68-6.939c1.787 1.212 3.515 6.177 5.819 4.925l15.421-17.992c.943-2.044 3.493-1.712 3.129.742-5.796 7.588-12.454 14.912-18.804 22.083-2.969-1.607-4.812-5.15-7.19-7.579-.988-1.346-.027-3.848 1.625-2.179z" fill="#262626"/></svg>