<svg viewBox="0 0 64 64" xmlns="http://www.w3.org/2000/svg"><g id="Outline_Color-1" data-name="Outline Color-1"><g id="_19" data-name="19"><circle cx="58" cy="26" fill="#f9b52d" r="3"/><circle cx="48" cy="58" fill="#e53e3e" r="3"/><circle cx="37" cy="6" fill="#e53e3e" r="3"/><path d="m41 59v2h-38v-2a4 4 0 0 1 4-4h30a4 4 0 0 1 4 4z" fill="#3565b5"/><path d="m33 51a4 4 0 0 1 4 4h-30a4 4 0 0 1 4-4z" fill="#3f79da"/><path d="m33 31.16v19.84h-22c0-10 9-17 9-17l-1-4.84-6 .84v2.16l-4 3-4-6 10-12v-6.16s5 1 5 4c0 0 13 0 13 16.16z" fill="#4686f2"/><path d="m37.91 54.09a5 5 0 0 0 -3.91-4v-18.93c0-14.45-10-16.73-13.12-17.09-.81-3-5.47-4-5.68-4.05a1 1 0 0 0 -.83.21 1 1 0 0 0 -.37.77v5.8l-9.77 11.72a1 1 0 0 0 -.06 1.19l4 6a1 1 0 0 0 1.43.29l4-3a1 1 0 0 0 .4-.8v-1.33l4.21-.59.69 3.33c-1.9 1.61-8.42 7.84-8.9 16.48a5 5 0 0 0 -3.95 4 5 5 0 0 0 -4.05 4.91v2a1 1 0 0 0 1 1h38a1 1 0 0 0 1-1v-2a5 5 0 0 0 -4.09-4.91zm-17.3-19.3a1 1 0 0 0 .37-1l-.98-4.79a1 1 0 0 0 -1.12-.79l-6 .84a1 1 0 0 0 -.88.95v1.66l-2.75 2.07-3-4.5 9.52-11.43a1 1 0 0 0 .23-.64v-4.83c1.32.47 3 1.37 3 2.67a1 1 0 0 0 1 1c.49 0 12 .23 12 15.16v18.84h-19.94c.57-8.85 8.47-15.15 8.55-15.21zm-11.74 18.09a3 3 0 0 1 2.13-.88h22a3 3 0 0 1 2.83 2h-27.66a3.12 3.12 0 0 1 .7-1.12zm31.13 7.12h-36v-1a3 3 0 0 1 3-3h30a3 3 0 0 1 3 3z"/><path d="m37 10a4 4 0 1 0 -4-4 4 4 0 0 0 4 4zm0-6a2 2 0 1 1 -2 2 2 2 0 0 1 2-2z"/><path d="m48 54a4 4 0 1 0 4 4 4 4 0 0 0 -4-4zm0 6a2 2 0 1 1 2-2 2 2 0 0 1 -2 2z"/><path d="m54 26a4 4 0 1 0 4-4 4 4 0 0 0 -4 4zm6 0a2 2 0 1 1 -2-2 2 2 0 0 1 2 2z"/><path d="m47.4 9.8 1.2-1.6-1.3-1a12 12 0 0 1 9.7 11.8h2a14 14 0 0 0 -12.18-13.87l1.78-1.33-1.2-1.6-4 3a1 1 0 0 0 0 1.6z"/><path d="m57.6 35.2-1.2 1.6 1.6 1.2c-6.68 0-11 5.5-11 14h2c0-7.29 3.53-12 9-12l-1.6 1.2 1.2 1.6 4-3a1 1 0 0 0 0-1.6z"/><path d="m49.95 12.64-2.12 2.12-2.12-2.12-1.42 1.41 2.12 2.12-2.12 2.12 1.42 1.42 2.12-2.12 2.12 2.12 1.41-1.42-2.12-2.12 2.12-2.12z"/><path d="m59.95 45.64-2.12 2.12-2.12-2.12-1.42 1.41 2.12 2.12-2.12 2.12 1.42 1.42 2.12-2.12 2.12 2.12 1.41-1.42-2.12-2.12 2.12-2.12z"/><path d="m42.29 36.64-2.12 2.12-2.12-2.12-1.41 1.41 2.12 2.12-2.12 2.12 1.41 1.42 2.12-2.12 2.12 2.12 1.42-1.42-2.12-2.12 2.12-2.12z"/><path d="m41.29 22.71 1.42-1.42-3-3a1 1 0 0 0 -1.42 0l-3 3 1.42 1.42 1.29-1.3v5.59a5 5 0 0 0 5 5h4.59l-1.3 1.29 1.42 1.42 3-3a1 1 0 0 0 0-1.42l-3-3-1.42 1.42 1.3 1.29h-4.59a3 3 0 0 1 -3-3v-5.59z"/><path d="m28 32v12h2v-12c0-11.73-7.78-13-7.86-13l-.28 2c.06 0 6.14 1 6.14 11z"/><path d="m28 46h2v2h-2z"/></g></g></svg>