<svg height="512" viewBox="0 0 64 64" width="512" xmlns="http://www.w3.org/2000/svg"><g id="Layer_14"><g><g><path d="m36 29.408v2.592l8.133 1.743c3.422.733 5.867 3.757 5.867 7.257v5h-8v16h-20v-16h-8v-5c0-3.5 2.445-6.524 5.867-7.257l8.133-1.743v-2.592z" fill="#383838"/><path d="m44.133 33.743-8.133-1.743v-2.592h-8v2.592l-6.687 1.433c1.643 11.851 9.768 21.629 20.687 25.626v-13.059h8v-5c0-3.5-2.445-6.524-5.867-7.257z" fill="#4c4c4c"/><g fill="#c2d0e8"><path d="m19.867 33.743c-.182.039-.36.088-.536.139l2.669 7.118v5 16h4v-29.571z"/><path d="m44.669 33.882c-.176-.052-.354-.1-.536-.139l-6.133-1.314v29.571h4v-21z"/><path d="m30 29.408h4v32.592h-4z"/></g><path d="m21.313 33.433c.643 4.637 2.279 8.953 4.687 12.733v-13.737z" fill="#eff2f3"/><path d="m44.669 33.882c-.176-.052-.354-.1-.536-.139l-6.133-1.314v24.839c1.285.683 2.619 1.286 4 1.792v-18.06z" fill="#eff2f3"/><path d="m30 29.408v21.829c1.234 1.276 2.57 2.453 4 3.51v-25.339z" fill="#eff2f3"/><path d="m42 46h7v16h-7z" fill="#f2baa4"/><path d="m36 32v-2.592h-8v2.592l-2.816.603c.533 2.274 2.174 4.12 4.322 4.94l2.494.456 4.497-5.893z" fill="#d08e7a"/><path d="m21 17.458v-6.268c0-2.209 1.791-4 4-4v-.531c0-1.991 1.464-3.678 3.434-3.96l1.785-.255c1.186-.169 2.382-.254 3.58-.254 2.119 0 4.224.342 6.234 1.011 1.772.591 2.967 2.248 2.967 4.115v10.142" fill="#383838"/><path d="m40.034 3.201c-2.01-.67-4.115-1.011-6.234-1.011-1.198 0-2.394.085-3.58.254l-1.785.255c-1.971.282-3.435 1.969-3.435 3.96v.531c-.53 0-1.034.108-1.496.296 1.4 4.465 5.57 7.704 10.496 7.704h9v-7.874c0-1.867-1.195-3.524-2.966-4.115z" fill="#4c4c4c"/><path d="m24 17.19h-2c-1.105 0-2 .895-2 2v2c0 1.105.895 2 2 2h2.343" fill="#d08e7a"/><path d="m40 17.19h2c1.105 0 2 .895 2 2v2c0 1.105-.895 2-2 2h-2.343" fill="#d08e7a"/><path d="m35.528 11.19c1.365 0 2.472 1.107 2.472 2.472 0 .936.529 1.792 1.367 2.211l.633.317v4c0 3.108-1.09 6.118-3.079 8.506-1.217 1.46-3.02 2.304-4.921 2.304-1.901 0-3.704-.844-4.921-2.305-1.989-2.387-3.079-5.397-3.079-8.505v-4l.633-.317c.838-.419 1.367-1.275 1.367-2.211 0-1.365 1.107-2.472 2.472-2.472z" fill="#d08e7a"/><path d="m28 13.699c.014.923-.541 1.761-1.367 2.174-.388.194-.633.591-.633 1.025v3.292c0 3.108 1.09 6.118 3.079 8.506 1 1.201 2.399 1.976 3.921 2.217 1.521-.241 2.92-1.016 3.921-2.217 1.989-2.388 3.079-5.398 3.079-8.506v-4l-.633-.317c-.826-.413-1.38-1.251-1.367-2.174.02-1.382-1.094-2.509-2.472-2.509h-5.056c-1.378 0-2.492 1.127-2.472 2.509z" fill="#f2baa4"/><path d="m31.724 30.071-.724-5.071h4l.754 4.524" fill="#004e9c"/><path d="m31.724 30.071 4.03-.547-.421-2.524h-4.047z" fill="#00437e"/><path d="m38 33.3c0 1.14-.32 2.22-.89 3.15-.58.93-1.41 1.69-2.42 2.2l-.69.35c-1.32 2.96-2.95 5.77-4.85 8.38-1.91 2.6-4.09 5-6.51 7.16-1.06.94-2.42 1.46-3.83 1.46-1.13 0-2.19-.56-2.81-1.5-.65-.98-1-2.13-1-3.3v-5.2h6.82l8.18-9 .71-3.56c.19-.96.44-1.9.75-2.83.32-.96 1.22-1.61 2.24-1.61 1.44 0 2.78.72 3.58 1.92.47.7.72 1.53.72 2.38z" fill="#f2baa4"/><path d="m20.468 46-1.207 1.327 1.478 1.346 1.821-2-.74-.673z" fill="#d08e7a"/><path d="m14 41v5h4v-4c0-1.259.593-2.445 1.6-3.2l1.229-.922-1.498-3.996c-3.138.92-5.331 3.804-5.331 7.118z" fill="#c2d0e8"/><path d="m44.669 33.882-1.498 3.996 1.229.922c1.007.755 1.6 1.941 1.6 3.2v4h4v-5c0-3.314-2.193-6.198-5.331-7.118z" fill="#eff2f3"/></g><path d="m19.657 32.765c-3.857.826-6.657 4.29-6.657 8.235v5c0 .552.447 1 1 1v4.203c0 1.375.403 2.705 1.165 3.848.814 1.221 2.176 1.95 3.643 1.95.754 0 1.492-.131 2.192-.371v5.37c0 .552.447 1 1 1h27c.553 0 1-.448 1-1v-15c.553 0 1-.448 1-1v-5c0-3.945-2.8-7.409-6.657-8.235l-5.651-1.211c-.146-.417-.333-.82-.582-1.192-.215-.323-.467-.612-.74-.875.107-.113.22-.221.321-.341 1.263-1.516 2.18-3.274 2.727-5.146h1.582c1.654 0 3-1.346 3-3v-2c0-.883-.391-1.67-1-2.22v-9.654c0-2.301-1.467-4.336-3.649-5.063-3.293-1.097-6.838-1.29-10.272-.798l-1.786.255c-2.324.332-4.105 2.267-4.279 4.578-2.286.459-4.014 2.483-4.014 4.902v5.78c-.609.549-1 1.337-1 2.22v2c0 1.654 1.346 3 3 3h1.584c.547 1.871 1.464 3.63 2.727 5.146.214.257.448.49.689.713v1.333zm7.343 4.465c.279.224.573.428.881.614l-.881.97zm-2-2.371v6.154l-2 2.2v-2.213c0-.12-.021-.239-.063-.351l-2.27-6.055 3.827-.82c.139.378.314.737.506 1.085zm-4.801 4.741.162-.122.639 1.703v3.819h-2v-3c0-.939.448-1.837 1.199-2.4zm-5.199 1.4c0-2.53 1.52-4.785 3.751-5.817l.879 2.344-.631.473c-1.252.939-1.999 2.435-1.999 4v3h-2zm1.829 12.941c-.542-.814-.829-1.76-.829-2.738v-4.203h3.557l-.297.327 1.48 1.346 10-11c.122-.134.205-.299.24-.477l.713-3.563c.184-.917.425-1.828.718-2.706.186-.554.702-.927 1.286-.927 1.106 0 2.134.55 2.748 1.471.364.544.555 1.177.555 1.832 0 1.899-1.056 3.607-2.755 4.456l-.692.346c-.207.104-.372.276-.467.488-2.595 5.841-6.333 10.956-11.111 15.204-.874.776-1.998 1.203-3.167 1.203-.797 0-1.537-.396-1.979-1.059zm15.324-27.941h2l.344 2.067c-.263-.04-.529-.067-.8-.067-.43 0-.841.09-1.224.241zm11.647 13.6c.752.563 1.2 1.461 1.2 2.4v3h-2v-3.819l.638-1.703zm-2.737 1.049c-.042.112-.063.231-.063.351v20h-2v-20.972h-2v20.972h-2v-21.383l.14-.07c2.273-1.135 3.708-3.371 3.836-5.887l4.358.934zm-14.063 10.96c.697-.774 1.359-1.574 2-2.39v11.781h-2zm4-5.131c.712-1.06 1.375-2.154 2-3.274v17.796h-2zm-8 9.059c.102-.08.205-.159.303-.245.581-.517 1.146-1.048 1.697-1.589v7.297h-2zm25 5.463h-5v-14h5zm1-20v4h-2v-3c0-1.565-.747-3.061-2-4l-.63-.472.879-2.345c2.231 1.032 3.751 3.287 3.751 5.817zm-6-20c0 .551-.448 1-1 1h-1.154c.094-.661.154-1.327.154-2v-2h1c.552 0 1 .449 1 1zm-21 1c-.552 0-1-.449-1-1v-2c0-.551.448-1 1-1h1v2c0 .673.06 1.339.154 2zm2.187-7.211-.634.317c-.339.169-.553.515-.553.894h-1v-5c0-1.654 1.346-3 3-3 .553 0 1-.448 1-1v-.531c0-1.483 1.107-2.76 2.576-2.97l1.785-.255c3.127-.448 6.357-.284 9.356.716 1.366.455 2.283 1.728 2.283 3.166v8.874h-1c0-.379-.214-.725-.553-.895l-.634-.317c-.501-.25-.813-.755-.813-1.316 0-1.914-1.558-3.472-3.472-3.472h-7.057c-1.913 0-3.471 1.558-3.471 3.472 0 .561-.312 1.066-.813 1.317zm.813 5.211v-3.382l.081-.041c1.184-.591 1.919-1.781 1.919-3.105 0-.811.66-1.472 1.472-1.472h7.057c.811 0 1.471.661 1.471 1.472 0 1.324.735 2.514 1.919 3.105l.081.041v3.382c0 2.715-.915 5.357-2.57 7.5l-.444-2.665c-.08-.481-.497-.835-.986-.835h-4c-.29 0-.565.126-.756.345-.189.219-.275.51-.234.797l.641 4.482c-1.09-.28-2.068-.877-2.803-1.759-1.837-2.204-2.848-4.997-2.848-7.865zm5.134 11.565c-.152.554-.29 1.112-.402 1.676l-.605 3.025c-1.19-.648-2.114-1.678-2.641-2.918l1.723-.369c.462-.1.791-.507.791-.979v-.829c.365.162.744.293 1.134.394z"/></g></g></svg>