<svg viewBox="0 0 512 512" xmlns="http://www.w3.org/2000/svg"><g id="uuid-34b1a479-36a7-4d68-bce9-1f189655ae01"><path d="m482.97 387.89c-15.64-5.41-31.57-10.09-47.31-15.26-3.35-1.07-6.79-1.97-10.31-2.08-5.7-.13-8.65 4.28-10.49 7.4-10.21-4.83-21.05-8.83-32.38-9.1-6.01-.15-12.08.73-18.07.37-9.57-.55-21.79-6.12-29.92-11.01h-.01c-9.97-6.21-18.42-14.86-24.39-24.98l15.24-3.12c.91-.19 1.87-.4 2.56-1.01.7-.63 1.02-1.57 1.25-2.5l.15.04c8.82-.74 20.93-2.35 29.05-6.65 8.62 2.84 33.87 6.62 36.88-5.17.69-3.2-1.09-6.53-3.66-8.55-2.58-2.02-5.82-2.95-9.01-3.67-5.86-1.32-15.38-2.44-21.38-2.63l-.1.04c-1.04-2.61-1.62-4.76-4.81-5.13-6.89-1.37-18.58-2.38-25.57-3.18l-.1.02c-.03-.22-.06-.44-.1-.66-17.19-.81-34.43-.49-51.58.96-12.85.6-25.88-2.96-36.61-10.07-4.76-3.16-9.27-7.26-11.02-12.7 8.89-2.5 17.78-5.01 26.68-7.51 1.98-.58 2.17-2.54 1.65-4.27l.23-.05c16.04-7.99 30.68-15.8 41.74-33.95.61 0 1.24-.26 1.82-.51 5.99-2.62 12.16-5.44 16.39-10.41 11.43-13.58 5.99-41.83-9.06-50.91-3.36 1.94-4.51 6.14-5.86 9.78-1.35 3.65-3.99 7.61-7.89 7.56-4.27-.76-5.17 1.82-5.04 5.81.26 5.34-.71 13.31-.45 18.64-12.88 8.34-34.92 16.55-49.61 21.12l-.07.11c-1.38-1.04-3.18-1-4.83-.89-17.4.99-34.66 4.36-51.15 9.98h-.02c2.34-7.66-1.09-17.52-6.12-24.4-5.4-10.02-13.53-21.32-22.77-28.98-4.66-3.83-10.38-7.33-16.34-6.39-2.77.44-5.3 1.81-7.73 3.22-11.77 6.79-23.85 16.5-25.24 30.01-1.39 14.19 9.02 26.35 20.09 33.98 4.85 3.35 9.73 6.95 15.38 8.74l-.02.06c-7.38-1.62-17.8 1.97-22.95 1.08-11.3-4.29-19.16-7.74-24.57-18.89-4.63-8.49-10.56-15.19-14.03-24.21-4.45-8.52.6-18.97 7.02-26.12 1.97-2.19 4.11-4.3 5.44-6.93 3.37-6.77-.8-12.23-8.16-11.97-3.14.08-6.21.96-9.35 1.08.1-5.96-.72-11.94-2.43-17.65-.72-2.43-1.68-4.94-3.61-6.58-3.09-2.65-7.67-2.4-11.63-1.56-11.55 2.42-22.27 8.59-30.18 17.34-4.74 5.26-8.57 12.95-5.26 19.2 1.68 3.16 4.82 5.2 7.52 7.53 4.92 4.23 8.59 9.69 12.2 15.08 4.36 6.49 10.7 13.81 15.05 20.3h.01c2.86 9.54 6.85 20.03 9.69 29.56 1.76 5.91 3.62 11.99 7.55 16.74 5.75 6.97 15.81 13.42 22.73 19.25 8.64 17.67 29.4 23.23 48.92 25.55 7.74.93 13.84 7.64 20.99 10.71 3.82 1.64 7.2 4.12 10.51 6.6 22.49 16.84 43.99 34.93 65.47 53.02 4.25-3.01 8.29-6.33 11.98-10.01 14.66 11.52 34.24 22.6 51.63 29.33 2.42 1.08 4.39.98 5.99-1.3l.12.12c10.84-.15 22.7-.17 33.01 3.18 4.84 1.57 9.46 3.88 14.51 4.63 16.96 1.57 34.11.99 51.11.42 3.36-.21 6.93-.1 10.12-1.19l.09.25c14.18 5.82 25.07 6.1 39.26 4.63 9.38-.9 21.24-3.15 24.11-13.42.69-2.94-.32-6.43-2.96-7.88z" fill="#f2cd94"/></g><g id="uuid-585074a8-e87a-4824-a21f-1b8476909c07"><g fill="#004652"><path d="m330.7 292.37c1.74 11.28 1.23 22.89-1.49 33.97-.25 1-.55 2.07-1.32 2.76-.69.61-1.65.82-2.56 1.01l-15.24 3.12c5.97 10.12 14.42 18.77 24.39 24.98-4.24 14.06-11.3 27.27-20.63 38.62-.64.82-1.35 1.7-2.34 2.1-1.26.48-2.65 0-3.9-.48-17.39-6.73-36.97-17.81-51.63-29.33 20.2-19.5 30.43-49.68 22.94-77.1 17.15-1.45 34.39-1.77 51.58-.96.07.43.14.88.2 1.31z"/><path d="m324.99 184.83c1.88 9.54 1.12 20.32-5.19 27.72-4.23 4.97-10.4 7.79-16.39 10.41-.78.33-1.61.69-2.43.41-.81-.28-1.28-1.1-1.68-1.85-2.87-5.38-4.94-12.71-7.8-18.09-.26-5.33.71-13.3.45-18.64-.13-4 .77-6.57 5.04-5.81 3.9.05 6.54-3.91 7.89-7.56 1.35-3.64 2.5-7.84 5.86-9.78 8.03 4.78 12.44 14.02 14.25 23.19z"/><path d="m58.13 217.69c-4.35-6.49-10.69-13.81-15.05-20.3-3.61-5.39-7.28-10.85-12.2-15.08-2.7-2.33-5.84-4.37-7.52-7.53-3.31-6.25.52-13.94 5.26-19.2 7.91-8.75 18.63-14.92 30.18-17.34 3.96-.84 8.54-1.09 11.63 1.56 1.93 1.64 2.89 4.15 3.61 6.58 1.71 5.71 2.53 11.69 2.43 17.65 3.14-.12 6.21-1 9.35-1.08 7.33-.28 11.55 5.22 8.16 11.97-1.33 2.63-3.47 4.74-5.44 6.93-6.42 7.15-11.47 17.6-7.02 26.12-7.16 3.53-16.15 6.19-23.38 9.73-.01 0-.01-.01-.01-.01z"/></g><path d="m427.21 384.86c-.75-1.05-1.94-1.68-3.07-2.27-3.05-1.58-6.15-3.15-9.28-4.64-10.21-4.83-21.05-8.83-32.38-9.1-6.33-.15-12.7.81-19.01.31v.14c1.89 2.06 3.08 6.4 3.13 9.2.12 7.36-2.83 19.35-5.32 26.28l-.04.3c18.11 1.63 36.41.99 54.55.25 11.23-.05 14.16-6.03 12.61-16.64-.18-1.34-.39-2.74-1.19-3.83z" fill="#3482b3"/><path d="m75.38 264c5.75 6.97 15.81 13.42 22.73 19.25 8.64 17.67 29.4 23.23 48.92 25.55 7.74.93 13.84 7.64 20.99 10.71 3.82 1.64 7.2 4.12 10.51 6.6 22.49 16.84 43.99 34.93 65.47 53.02 27.48-18.74 43.95-54.34 34.92-87.11-12.85.6-25.88-2.96-36.61-10.07-4.76-3.16-9.27-7.26-11.02-12.7 8.89-2.5 17.78-5.01 26.68-7.51 1.98-.58 2.17-2.54 1.65-4.27l.23-.05c16.04-7.99 30.68-15.8 41.74-33.95-1.13.02-1.81-1.02-2.29-1.95-2.87-5.38-4.94-12.71-7.8-18.09-12.88 8.34-34.92 16.55-49.61 21.12l-.07.11c-1.38-1.04-3.18-1-4.83-.89-17.4.99-34.66 4.36-51.15 9.98h-.02s-.01.05-.02.07h.04c4.64 4.54 16.02 16.95-2.09 25.61-19.37 8.88-39.9-8.05-41.77-9.64-7.26-1.08-16.96 2.12-21.86 1.28-7.08-2.78-13.41-5.12-18.62-10.21-2.48-2.49-4.27-5.59-5.95-8.68-4.63-8.49-10.56-15.19-14.03-24.21-7.16 3.53-16.15 6.19-23.38 9.73 2.86 9.54 6.85 20.03 9.69 29.56 1.76 5.91 3.62 11.99 7.55 16.74z" fill="#009492"/><path d="m482.97 387.89c-15.64-5.41-31.57-10.09-47.31-15.26-3.35-1.07-6.79-1.97-10.31-2.08-5.7-.14-8.65 4.28-10.49 7.4 3.13 1.49 6.23 3.06 9.28 4.64 1.13.59 2.32 1.22 3.07 2.27.8 1.09 1.01 2.49 1.19 3.83.94 6.02.52 13.56-5.93 15.62l.09.25c14.18 5.82 25.07 6.1 39.26 4.63 9.38-.9 21.24-3.15 24.11-13.42.69-2.94-.32-6.43-2.96-7.88z" fill="#231f20"/><path d="m383.86 322.41c2.4-.34 4.83-.85 6.96-2.05 5.88-3.22 5.9-10.08.75-14.09-2.58-2.02-5.82-2.95-9.01-3.67-5.86-1.32-15.38-2.44-21.38-2.63l-.1.04c1.57 3.86 2.93 7.81 4.12 11.81.2.68.4 1.4.25 2.1-.17.8-.77 1.43-1.37 1.98-1.76 1.64-3.6 2.98-5.74 4.09 7.58 2.45 17.62 3.54 25.51 2.42z" fill="#231f20"/><path d="m127.16 240.8c.18.13.36.26.55.39v-.02c-4.11-2.91-5.62-11.96-3.58-16.57 1.88-4.24 5.46-7.36 10.5-7.21-4.37-8.25-3.2-19.19 3.06-26.11 6.12-6.76 16.32-9.83 24.48-5.94l.07-.07c-5.8-5.71-13.15-12.43-21.65-11.29-2.77.44-5.3 1.81-7.73 3.22-30.73 16.84-34.58 42.68-5.7 63.6z" fill="#231f20"/></g><g id="uuid-3bc57a52-a616-4a63-b8b6-a23aabd471b5" fill="#231f20"><path d="m278.63 287.52h.07s-.05 0-.07 0z"/><path d="m487.86 384.72c2.18-6.03-6.53-8.97-8.56-2.87l-4.91-1.57c1.61-5.7-6.56-8.31-8.56-2.74l-28.6-9.14c1.59-6.17-7.23-8.31-8.78-2.11-6.85-1.26-12.17 1.89-15.2 5.98-10.61-4.86-21.45-7.78-30.65-7.93-5.99-.17-12.11.71-17.92.38-8.91-.54-20.49-5.95-27.79-10.33-7.57-4.69-14.18-10.89-19.4-18.09l8.75-1.79c1.6-.16 4.88-1.5 5.97-3.63 11.42-1.11 20.17-3.12 26.55-6.08 11.44 3.12 37.17 6.28 40.89-9.04.99-4.61-1.08-9.73-5.29-13.04-3.26-2.56-7.11-3.68-10.8-4.52-5.11-1.15-13.12-2.2-19.43-2.59-.5-1.05-1.29-2.39-2.62-3.39-1.53-1.18-3.21-1.52-4.34-1.75-6.58-1.3-16.47-2.21-24.01-3.03-.69-.51-1.53-.83-2.43-.88-17.25-.82-34.74-.5-52.01.95h.02c-14.48.63-31.2-4.51-40.87-15.44l21.33-6c2.78-.78 4.74-3.13 5.13-5.86 16.15-8.15 29.51-16.22 40.13-32.82 7.29-3.1 13.94-6.24 18.78-11.93 8.76-10.27 7.63-24.15 6.18-31.51-2.37-12.02-8.18-21.32-16.37-26.19-1.4-.83-3.14-.84-4.56-.03-4.39 2.54-6.04 7.15-7.37 10.85-.84 2.62-2.71 6.41-4.53 5.84-4.1-.45-9.42 1.32-9.13 10.58.21 4.56-.48 11.04-.49 15.94-11.88 7.14-30.43 14.24-44.91 18.82-1.6-.59-3.7-.63-5.32-.5-15.51.89-30.84 3.6-45.69 8.08-.31-7.59-3.79-15.21-7.52-20.4-7.49-13.6-25.89-40.15-43.64-37.42-3.51.55-6.51 2.16-9.28 3.76-37.16 20.37-35.2 52.01-3.56 72.93-2.3.32-4.48.57-5.82.43-6.28-2.48-11.97-4.55-16.55-8.98-2.1-2.11-3.71-4.94-5.19-7.66-1.86-3.41-3.9-6.52-5.87-9.52-3.18-4.78-6.08-9.35-8.12-14.62-3.39-6.5 1.07-15.12 6.37-21.03 2.17-2.41 4.44-4.64 6.12-7.91 2.22-4.39 2.18-9.34-.11-12.91-3.28-5.26-10.72-6.41-17.04-5.08-.31-4.7-1.14-9.34-2.49-13.87-.88-2.95-2.16-6.3-5-8.72-3.65-3.13-8.72-3.97-15.48-2.55-12.47 2.62-24.04 9.27-32.59 18.74-7.41 8.21-9.61 17.31-5.9 24.33 2.21 4.08 5.47 6.18 8.56 8.82 4.49 3.87 8 9.1 11.4 14.17 4.32 6.43 10.33 13.4 14.69 19.79 2.87 9.43 6.67 19.49 9.48 28.86 1.78 5.99 3.81 12.78 8.39 18.33 5.81 7.07 15.32 13.26 22.64 19.27 10.42 19.98 34.57 25.06 51.96 27.13 3.68.44 7.26 2.82 11.05 5.33 2.73 1.81 5.55 3.69 8.7 5.04 3.21 1.38 6.12 3.47 9.59 6.06 22.44 16.8 44.21 35.13 65.26 52.86 1.57 1.32 3.82 1.41 5.49.24 3.4-2.39 6.64-5.01 9.67-7.77 14.88 11.05 33.22 21.25 49.72 27.62 2.61 1.23 6.87 1.54 9.42-.9 8.91-.11 20.49-.09 29.93 2.98 5.34 1.79 10.64 4.36 16.46 4.98 16.96 1.3 33.82.91 50.78.29 3.11-.21 5.87-.1 9.32-.86 14.55 5.77 25.95 6.03 40.39 4.53 6.77-.7 16.4-2.2 21.78-7.16 6.56-5.66 9.15-14.54 3.38-20.79l.42-1zm-99.07-74.91c2.68 2.18 2.86 4.98-.18 6.63-1.59.89-3.61 1.27-5.38 1.52-4.29.61-9.58.48-14.7-.26 3.14-4.01.32-8.78-.81-12.77 4.93.48 10.26 1.25 13.84 2.05 3.07.7 5.47 1.45 7.23 2.82zm-33.41-10.51c.16.03.39.08.58.12 1.9 4.38 3.46 8.79 4.84 13.39-6.31 5.38-13.11 6.92-25.99 8.74 1.43-8.13 1.76-16.54.96-24.78 6.44.67 14.55 1.51 19.61 2.52zm-92.75-48.32c-2.38-7.76-6.65-15.63-13.07-24.17 13.27-4.44 28.78-10.58 39.96-16.93 1.98 4.73 3.68 10.01 6.18 14.43-8.74 12.85-19.49 19.69-33.07 26.67zm33.59-56.58c.26-3.86.3-7.54.23-10.94 5.55.3 10.05-3.54 12.65-10.46.67-1.78 1.33-3.89 2.17-5.43 11.27 10.41 13.39 32.53 5.11 42.07-3.24 3.81-8.09 6.25-13.65 8.71-2.36-4.86-4.27-11.12-6.77-16.07-.04-2.29.11-5.13.26-7.88zm-109.56 47.13c4.72 6.57 2.12 10.67-4.78 13.81-7.66 3.51-15.73 2.19-22.38-.38 12.06-1.66 21.41-6.28 27.16-13.43zm-10.92-30.05c4.18 5.73 7.92 14.73 5.68 21.28-3.99 9.28-16.3 12.46-24.25 13.43-5.37.61-8.97.52-12.7-.55-5.18-1.67-9.88-5.14-14.14-8.14-2.13-1.51-3.38-8.14-2.08-11.08.94-2.13 2.82-4.64 6.25-4.54 3.33.21 5.76-3.7 4.11-6.61-3.54-6.69-2.52-15.51 2.42-20.98 5.03-5.55 12.84-7.64 18.76-5.08 5.94 6.23 11.68 14.31 15.95 22.26zm-63.64-3.8c.98-9.51 8.51-18.21 23.02-26.58 4.48-2.83 8.3-3.84 13.17-1.15-14.91 3.45-24.06 19.29-19.8 34.1-4.87 2.01-9.01 7.33-9.6 13.1-4.85-5.85-7.47-13.26-6.79-19.48zm-65.27-12.79c-3.56-5.31-7.58-11.32-13-15.98-2.17-1.9-5.31-3.99-6.49-6.22-2.2-4.16 1.12-10.19 4.63-14.08 7.28-8.06 17.14-13.73 27.76-15.96 2.68-.55 5.92-.94 7.78.58 1.06.91 1.72 2.76 2.23 4.45 1.58 5.29 2.33 10.77 2.24 16.28-.09 2.5 2.17 4.73 4.67 4.57 3.18-.1 6.26-.97 9.27-1.07 4.08-.05 5.83 1.74 4.05 5.43-1 2-3.08 4.06-4.78 5.96-6.32 7.03-11.54 17.29-9.32 26.76-5.28 2.24-10.9 4.14-16.2 6.44-4.04-5.58-9.13-11.64-12.85-17.16zm32.02 66.26c-3.42-4.14-5.08-9.75-6.7-15.17-2.53-8.47-5.81-17.32-8.53-25.82 5.07-2.17 10.51-4.03 15.62-6.21 3.65 7.43 8.45 13.25 12.36 20.39 5.19 10.59 12.82 15.64 23.9 19.74-.37 6.79-1.42 14.53-3.42 18.7-1.72 3.58-7.3 6.3-12.19 6.11-6.69-5.49-15.99-11.62-21.04-17.74zm165.34 112.27c-20.31-17.1-41.28-34.67-62.96-50.91-3.11-2.33-6.99-5.22-11.43-7.13-7.36-3.35-13.52-10.09-22.23-11.04-20.61-2.46-34.07-7.96-41.6-17.13 16.15-3.91 17.28-17.64 18.46-31.6 4.9-.41 10.98-1.82 15.77-1.47 7.86 6.62 28.4 17.75 45.44 9.38 13.46-5.86 15.71-17.44 8.11-27.57 14.71-4.31 30.06-7.31 45.42-7.65 8.64 10.02 14.18 20.65 15.95 29.58l-25.04 7.04c-1.18.33-2.17 1.13-2.75 2.2-.58 1.08-.69 2.34-.32 3.51 1.81 5.63 6.01 10.56 12.82 15.08 10.49 6.94 22.99 10.74 35.55 10.87 6.35 28.49-7.65 59.43-31.19 76.84zm18.52-4.82c17.92-19.31 26.83-47.06 21.75-72.49 14.01-.99 28.14-1.23 42.12-.7 1.24 10.03.62 20.42-1.83 30.23-.12.03-.24.05-.32.07l-15.24 3.12c-1.42.29-2.62 1.25-3.21 2.58s-.5 2.86.24 4.11c5.74 9.73 13.63 18.17 22.94 24.58-4.2 12.47-10.81 24.3-19.21 34.42-15.49-5.85-33.04-15.59-47.23-25.92zm85.41 27.58c-8.22-2.67-17.39-3.33-25.51-3.43 6.02-8.59 10.92-18.06 14.43-27.91 7.4 3.82 16.4 7.48 23.77 8.56.69 1.4 1.27 3.6 1.3 5.19.09 5.39-1.77 14.26-3.9 21.19-3.34-1.01-6.67-2.5-10.08-3.6zm67.45 4.67c-16.08.83-32.33.93-48.38.28 2.17-7.41 4.01-16.57 3.91-22.7-.02-1.41-.25-3.03-.66-4.68 3.97-.13 8.09-.49 11.93-.4 12.39-.03 29.43 7.4 41.2 14.15.81 3.47 1.43 9.47-1.02 11.69-1.45 1.27-4.24 1.51-6.98 1.65zm65.98-6.08c-2.8 7.22-8.97 8.57-20.19 9.96-11.33 1.17-20.1 1.19-30.31-1.9 3.07-5.24 2.19-11.9 1.81-14.72-.58-7.33-5.45-8.9-11.11-11.77 1.02-.86 2.12-1.3 3.47-1.27 3.15.09 6.35.99 9.07 1.86l45.33 14.48c.46.15.94.3 1.18.44.6.33 1.05 1.65.75 2.93z"/></g><g id="uuid-cc2efbbb-becc-4e0e-aa83-2b52cde23760"><path d="m171.13 113.33c2.28 21.4-13.22 40.59-34.61 42.87-21.4 2.28-40.59-13.22-42.87-34.61-2.28-21.4 13.22-40.59 34.61-42.87 21.4-2.28 40.59 13.22 42.87 34.61z" fill="#fff"/><g fill="#231f20"><path d="m160 83.26c-9.14-7.38-20.6-10.76-32.27-9.51-11.68 1.24-22.17 6.96-29.55 16.1s-10.75 20.6-9.51 32.27c2.4 22.53 21.51 39.3 43.68 39.3 1.55 0 3.12-.08 4.69-.25 11.68-1.24 22.17-6.96 29.54-16.1s10.75-20.6 9.51-32.27c-1.24-11.68-6.96-22.17-16.1-29.55zm-1.19 55.54c-5.7 7.06-13.8 11.48-22.82 12.44-18.62 1.98-35.38-11.55-37.37-30.17-.2-1.9-.24-3.79-.13-5.67 1.57 1.07 3.69 1.18 5.39.06l6.29-4.14c1.06-.7 1.81-1.79 2.08-3.04l1.82-8.52c.56-2.63-1.13-5.22-3.77-5.76l-2.07-.42c5.49-5.57 12.67-9.05 20.55-9.89 1.23-.13 2.45-.2 3.67-.2.35 0 .71.01 1.06.02-.11.23-.2.46-.27.71l-.3 1.04c-.57 2.01.21 4.17 1.94 5.34l8.63 5.84c1.03.7 2.29.97 3.52.77l5.92-1c1.6-.27 2.88-1.29 3.55-2.65 5.43 5.46 8.82 12.54 9.64 20.3.96 9.02-1.65 17.88-7.35 24.93z"/><path d="m144.54 116.21c-1.35-1.6-3.58-2.15-5.52-1.36l-10.35 4.2c-1.96.8-3.18 2.77-3.01 4.88l.8 10c.17 2.12 1.7 3.88 3.77 4.34 2.96.66 7.16 1.59 10.05 2.23 1.95.43 3.97-.38 5.08-2.05l5.91-8.88c1.2-1.8 1.06-4.17-.34-5.82l-6.4-7.55z"/></g></g></svg>