<?xml version="1.0" encoding="UTF-8" standalone="no"?>
<!-- Created with Inkscape (http://www.inkscape.org/) -->

<svg
   version="1.1"
   id="svg8298"
   width="682.66669"
   height="682.66669"
   viewBox="0 0 682.66669 682.66669"
   xmlns="http://www.w3.org/2000/svg"
   xmlns:svg="http://www.w3.org/2000/svg">
  <defs
     id="defs8302">
    <clipPath
       clipPathUnits="userSpaceOnUse"
       id="clipPath8312">
      <path
         d="M 0,512 H 512 V 0 H 0 Z"
         id="path8310" />
    </clipPath>
  </defs>
  <g
     id="g8304"
     transform="matrix(1.3333333,0,0,-1.3333333,0,682.66667)">
    <g
       id="g8306">
      <g
         id="g8308"
         clip-path="url(#clipPath8312)">
        <g
           id="g8314"
           transform="translate(421.6426,317.3799)">
          <path
             d="m 0,0 c 0,-89.886 -73.477,-162.754 -164.115,-162.754 -90.638,0 -164.114,72.868 -164.114,162.754 0,89.884 73.476,162.752 164.114,162.752 C -73.477,162.752 0,89.884 0,0"
             style="fill:#fff;fill-opacity:1;fill-rule:nonzero;stroke:none"
             id="path8316" />
        </g>
        <g
           id="g8318"
           transform="translate(421.6426,317.3799)">
          <path
             d="m 0,0 c 0,-89.886 -73.477,-162.754 -164.115,-162.754 -90.638,0 -164.114,72.868 -164.114,162.754 0,89.884 73.476,162.752 164.114,162.752 C -73.477,162.752 0,89.884 0,0 Z"
             style="fill:none;stroke:#000000;stroke-width:15;stroke-linecap:round;stroke-linejoin:round;stroke-miterlimit:10;stroke-dasharray:none;stroke-opacity:1"
             id="path8320" />
        </g>
        <g
           id="g8322"
           transform="translate(358.0981,238.7178)">
          <path
             d="M 0,0 55.135,-55.095"
             style="fill:none;stroke:#000000;stroke-width:15;stroke-linecap:round;stroke-linejoin:round;stroke-miterlimit:10;stroke-dasharray:none;stroke-opacity:1"
             id="path8324" />
        </g>
        <g
           id="g8326"
           transform="translate(101.8228,183.623)">
          <path
             d="M 0,0 55.135,55.095"
             style="fill:none;stroke:#000000;stroke-width:15;stroke-linecap:round;stroke-linejoin:round;stroke-miterlimit:10;stroke-dasharray:none;stroke-opacity:1"
             id="path8328" />
        </g>
        <g
           id="g8330"
           transform="translate(89.8389,130.2568)">
          <path
             d="m 0,0 c -1.751,0 -3.281,1.165 -3.749,2.848 -6.732,24.347 -11.42,29.024 -35.803,35.747 -1.686,0.465 -2.855,1.997 -2.855,3.74 0,1.746 1.169,3.279 2.855,3.742 24.383,6.723 29.071,11.402 35.803,35.746 0.468,1.686 1.998,2.85 3.749,2.85 1.748,0 3.281,-1.164 3.747,-2.85 C 10.48,57.479 15.165,52.8 39.552,46.077 c 1.686,-0.463 2.852,-1.996 2.852,-3.742 0,-1.743 -1.166,-3.275 -2.852,-3.74 C 15.165,31.872 10.48,27.195 3.747,2.848 3.281,1.165 1.748,0 0,0"
             style="fill:#ffdc48;fill-opacity:1;fill-rule:nonzero;stroke:none"
             id="path8332" />
        </g>
        <g
           id="g8334"
           transform="translate(68.4785,182.9463)">
          <path
             d="m 0,0 c -4.499,-2.478 -10.313,-4.44 -18.192,-6.612 -1.686,-0.463 -2.854,-1.996 -2.854,-3.742 0,-1.744 1.168,-3.276 2.854,-3.741 24.383,-6.722 29.071,-11.399 35.803,-35.747 0.468,-1.682 1.998,-2.847 3.749,-2.847 1.748,0 3.281,1.165 3.747,2.847 2.172,7.855 4.135,13.654 6.611,18.143 C 25.72,-11.113 20.594,-5.987 0,0"
             style="fill:#fac600;fill-opacity:1;fill-rule:nonzero;stroke:none"
             id="path8336" />
        </g>
        <g
           id="g8338"
           transform="translate(89.8389,130.2568)">
          <path
             d="m 0,0 c -1.751,0 -3.281,1.165 -3.749,2.848 -6.732,24.347 -11.42,29.024 -35.803,35.747 -1.686,0.465 -2.855,1.997 -2.855,3.74 0,1.746 1.169,3.279 2.855,3.742 24.383,6.723 29.071,11.402 35.803,35.746 0.468,1.686 1.998,2.85 3.749,2.85 1.748,0 3.281,-1.164 3.747,-2.85 C 10.48,57.479 15.165,52.8 39.552,46.077 c 1.686,-0.463 2.852,-1.996 2.852,-3.742 0,-1.743 -1.166,-3.275 -2.852,-3.74 C 15.165,31.872 10.48,27.195 3.747,2.848 3.281,1.165 1.748,0 0,0 Z"
             style="fill:none;stroke:#000000;stroke-width:15;stroke-linecap:round;stroke-linejoin:round;stroke-miterlimit:10;stroke-dasharray:none;stroke-opacity:1"
             id="path8340" />
        </g>
        <g
           id="g8342"
           transform="translate(422.1646,130.2568)">
          <path
             d="m 0,0 c -1.751,0 -3.282,1.165 -3.75,2.848 -6.732,24.347 -11.419,29.024 -35.803,35.747 -1.685,0.465 -2.854,1.997 -2.854,3.74 0,1.746 1.169,3.279 2.854,3.742 24.384,6.723 29.071,11.402 35.803,35.746 0.468,1.686 1.999,2.85 3.75,2.85 1.748,0 3.28,-1.164 3.746,-2.85 6.733,-24.344 11.419,-29.023 35.805,-35.746 1.687,-0.463 2.852,-1.996 2.852,-3.742 0,-1.743 -1.165,-3.275 -2.852,-3.74 C 15.165,31.872 10.479,27.195 3.746,2.848 3.28,1.165 1.748,0 0,0"
             style="fill:#ffdc48;fill-opacity:1;fill-rule:nonzero;stroke:none"
             id="path8344" />
        </g>
        <g
           id="g8346"
           transform="translate(400.8037,182.9463)">
          <path
             d="m 0,0 c -4.499,-2.478 -10.313,-4.44 -18.192,-6.612 -1.685,-0.463 -2.854,-1.996 -2.854,-3.742 0,-1.744 1.169,-3.276 2.854,-3.741 24.383,-6.722 29.071,-11.399 35.803,-35.747 0.468,-1.682 1.998,-2.847 3.75,-2.847 1.747,0 3.28,1.165 3.745,2.847 2.173,7.855 4.135,13.654 6.611,18.143 C 25.72,-11.113 20.594,-5.987 0,0"
             style="fill:#fac600;fill-opacity:1;fill-rule:nonzero;stroke:none"
             id="path8348" />
        </g>
        <g
           id="g8350"
           transform="translate(422.1646,130.2568)">
          <path
             d="m 0,0 c -1.751,0 -3.282,1.165 -3.75,2.848 -6.732,24.347 -11.419,29.024 -35.803,35.747 -1.685,0.465 -2.854,1.997 -2.854,3.74 0,1.746 1.169,3.279 2.854,3.742 24.384,6.723 29.071,11.402 35.803,35.746 0.468,1.686 1.999,2.85 3.75,2.85 1.748,0 3.28,-1.164 3.746,-2.85 6.733,-24.344 11.419,-29.023 35.805,-35.746 1.687,-0.463 2.852,-1.996 2.852,-3.742 0,-1.743 -1.165,-3.275 -2.852,-3.74 C 15.165,31.872 10.479,27.195 3.746,2.848 3.28,1.165 1.748,0 0,0 Z"
             style="fill:none;stroke:#000000;stroke-width:15;stroke-linecap:round;stroke-linejoin:round;stroke-miterlimit:10;stroke-dasharray:none;stroke-opacity:1"
             id="path8352" />
        </g>
        <g
           id="g8354"
           transform="translate(358.0981,396.0381)">
          <path
             d="M 0,0 55.135,55.096"
             style="fill:none;stroke:#000000;stroke-width:15;stroke-linecap:round;stroke-linejoin:round;stroke-miterlimit:10;stroke-dasharray:none;stroke-opacity:1"
             id="path8356" />
        </g>
        <g
           id="g8358"
           transform="translate(101.8228,451.1338)">
          <path
             d="M 0,0 55.135,-55.096"
             style="fill:none;stroke:#000000;stroke-width:15;stroke-linecap:round;stroke-linejoin:round;stroke-miterlimit:10;stroke-dasharray:none;stroke-opacity:1"
             id="path8360" />
        </g>
        <g
           id="g8362"
           transform="translate(89.8389,504.5)">
          <path
             d="m 0,0 c -1.751,0 -3.281,-1.166 -3.749,-2.849 -6.732,-24.345 -11.42,-29.024 -35.803,-35.746 -1.686,-0.466 -2.855,-1.997 -2.855,-3.741 0,-1.746 1.169,-3.279 2.855,-3.742 24.383,-6.723 29.071,-11.401 35.803,-35.746 0.468,-1.686 1.998,-2.849 3.749,-2.849 1.748,0 3.281,1.163 3.747,2.849 6.733,24.345 11.418,29.023 35.805,35.746 1.686,0.463 2.852,1.996 2.852,3.742 0,1.744 -1.166,3.275 -2.852,3.741 C 15.165,-31.873 10.48,-27.194 3.747,-2.849 3.281,-1.166 1.748,0 0,0"
             style="fill:#ffdc48;fill-opacity:1;fill-rule:nonzero;stroke:none"
             id="path8364" />
        </g>
        <g
           id="g8366"
           transform="translate(68.4785,472.5166)">
          <path
             d="m 0,0 c -4.5,-2.478 -10.313,-4.439 -18.192,-6.611 -1.686,-0.466 -2.854,-1.997 -2.854,-3.742 0,-1.746 1.168,-3.279 2.854,-3.742 24.383,-6.722 29.071,-11.4 35.803,-35.746 0.468,-1.685 1.998,-2.848 3.749,-2.848 1.748,0 3.281,1.163 3.747,2.848 2.172,7.854 4.135,13.653 6.611,18.143 C 25.72,-11.114 20.594,-5.987 0,0"
             style="fill:#fac600;fill-opacity:1;fill-rule:nonzero;stroke:none"
             id="path8368" />
        </g>
        <g
           id="g8370"
           transform="translate(89.8389,504.5)">
          <path
             d="m 0,0 c -1.751,0 -3.281,-1.166 -3.749,-2.849 -6.732,-24.345 -11.42,-29.024 -35.803,-35.746 -1.686,-0.466 -2.855,-1.997 -2.855,-3.741 0,-1.746 1.169,-3.279 2.855,-3.742 24.383,-6.723 29.071,-11.401 35.803,-35.746 0.468,-1.686 1.998,-2.849 3.749,-2.849 1.748,0 3.281,1.163 3.747,2.849 6.733,24.345 11.418,29.023 35.805,35.746 1.686,0.463 2.852,1.996 2.852,3.742 0,1.744 -1.166,3.275 -2.852,3.741 C 15.165,-31.873 10.48,-27.194 3.747,-2.849 3.281,-1.166 1.748,0 0,0 Z"
             style="fill:none;stroke:#000000;stroke-width:15;stroke-linecap:round;stroke-linejoin:round;stroke-miterlimit:10;stroke-dasharray:none;stroke-opacity:1"
             id="path8372" />
        </g>
        <g
           id="g8374"
           transform="translate(422.1646,504.5)">
          <path
             d="m 0,0 c -1.751,0 -3.282,-1.166 -3.75,-2.849 -6.732,-24.345 -11.419,-29.024 -35.803,-35.746 -1.685,-0.466 -2.854,-1.997 -2.854,-3.741 0,-1.746 1.169,-3.279 2.854,-3.742 24.384,-6.723 29.071,-11.401 35.803,-35.746 0.468,-1.686 1.999,-2.849 3.75,-2.849 1.748,0 3.28,1.163 3.746,2.849 6.733,24.345 11.419,29.023 35.805,35.746 1.687,0.463 2.852,1.996 2.852,3.742 0,1.744 -1.165,3.275 -2.852,3.741 C 15.165,-31.873 10.479,-27.194 3.746,-2.849 3.28,-1.166 1.748,0 0,0"
             style="fill:#ffdc48;fill-opacity:1;fill-rule:nonzero;stroke:none"
             id="path8376" />
        </g>
        <g
           id="g8378"
           transform="translate(400.8032,472.5166)">
          <path
             d="m 0,0 c -4.499,-2.478 -10.313,-4.439 -18.191,-6.611 -1.686,-0.466 -2.854,-1.997 -2.854,-3.742 0,-1.746 1.168,-3.279 2.854,-3.742 24.383,-6.722 29.07,-11.4 35.802,-35.746 0.469,-1.685 1.999,-2.848 3.75,-2.848 1.748,0 3.28,1.163 3.746,2.848 2.172,7.854 4.135,13.653 6.611,18.142 C 25.72,-11.114 20.595,-5.987 0,0"
             style="fill:#fac600;fill-opacity:1;fill-rule:nonzero;stroke:none"
             id="path8380" />
        </g>
        <g
           id="g8382"
           transform="translate(422.1646,504.5)">
          <path
             d="m 0,0 c -1.751,0 -3.282,-1.166 -3.75,-2.849 -6.732,-24.345 -11.419,-29.024 -35.803,-35.746 -1.685,-0.466 -2.854,-1.997 -2.854,-3.741 0,-1.746 1.169,-3.279 2.854,-3.742 24.384,-6.723 29.071,-11.401 35.803,-35.746 0.468,-1.686 1.999,-2.849 3.75,-2.849 1.748,0 3.28,1.163 3.746,2.849 6.733,24.345 11.419,29.023 35.805,35.746 1.687,0.463 2.852,1.996 2.852,3.742 0,1.744 -1.165,3.275 -2.852,3.741 C 15.165,-31.873 10.479,-27.194 3.746,-2.849 3.28,-1.166 1.748,0 0,0 Z"
             style="fill:none;stroke:#000000;stroke-width:15;stroke-linecap:round;stroke-linejoin:round;stroke-miterlimit:10;stroke-dasharray:none;stroke-opacity:1"
             id="path8384" />
        </g>
        <g
           id="g8386"
           transform="translate(333.0137,306.6279)">
          <path
             d="M 0,0 V 39.24 H -152.589 V 0 c 0,-25.523 12.559,-48.099 31.824,-61.937 v -109.908 h 88.94 v 109.908"
             style="fill:#fed2a4;fill-opacity:1;fill-rule:nonzero;stroke:none"
             id="path8388" />
        </g>
        <g
           id="g8390"
           transform="translate(237.249,144.7832)">
          <path
             d="m 0,0 v 109.908 c -19.266,13.838 -31.825,36.413 -31.825,61.937 v 29.24 h -25 v -39.24 c 0,-25.524 12.559,-48.099 31.825,-61.937 L -25,-10 H 63.94 V 0 Z"
             style="fill:#ffbd86;fill-opacity:1;fill-rule:nonzero;stroke:none"
             id="path8392" />
        </g>
        <g
           id="g8394"
           transform="translate(333.0137,306.6279)">
          <path
             d="M 0,0 V 39.24 H -152.589 V 0 c 0,-25.523 12.559,-48.099 31.824,-61.937 v -109.908 h 88.94 v 109.908"
             style="fill:none;stroke:#000000;stroke-width:15;stroke-linecap:round;stroke-linejoin:round;stroke-miterlimit:10;stroke-dasharray:none;stroke-opacity:1"
             id="path8396" />
        </g>
        <g
           id="g8398"
           transform="translate(256.332,224.5127)">
          <path
             d="M 0,0 V -47.435"
             style="fill:none;stroke:#000000;stroke-width:15;stroke-linecap:round;stroke-linejoin:round;stroke-miterlimit:10;stroke-dasharray:none;stroke-opacity:1"
             id="path8400" />
        </g>
        <g
           id="g8402"
           transform="translate(218.5713,335.835)">
          <path
             d="m 0,0 c 0,-9.181 -7.573,-16.689 -16.83,-16.689 h -4.487 c -9.258,0 -16.83,7.508 -16.83,16.689 v 50.069 c 0,9.18 7.572,16.691 16.83,16.691 h 4.487 C -7.573,66.76 0,59.249 0,50.069 Z"
             style="fill:#fed2a4;fill-opacity:1;fill-rule:nonzero;stroke:none"
             id="path8404" />
        </g>
        <g
           id="g8406"
           transform="translate(195.4243,335.835)">
          <path
             d="m 0,0 v 50.069 c 0,7.36 4.873,13.637 11.573,15.84 C 9.917,66.454 8.152,66.76 6.317,66.76 H 1.83 C -7.428,66.76 -15,59.249 -15,50.069 V 0 c 0,-9.181 7.572,-16.689 16.83,-16.689 h 4.487 c 1.835,0 3.6,0.305 5.256,0.85 C 4.873,-13.636 0,-7.36 0,0"
             style="fill:#ffbd86;fill-opacity:1;fill-rule:nonzero;stroke:none"
             id="path8408" />
        </g>
        <g
           id="g8410"
           transform="translate(218.5713,335.835)">
          <path
             d="m 0,0 c 0,-9.181 -7.573,-16.689 -16.83,-16.689 h -4.487 c -9.258,0 -16.83,7.508 -16.83,16.689 v 50.069 c 0,9.18 7.572,16.691 16.83,16.691 h 4.487 C -7.573,66.76 0,59.249 0,50.069 Z"
             style="fill:none;stroke:#000000;stroke-width:15;stroke-linecap:round;stroke-linejoin:round;stroke-miterlimit:10;stroke-dasharray:none;stroke-opacity:1"
             id="path8412" />
        </g>
        <g
           id="g8414"
           transform="translate(256.7187,347.6934)">
          <path
             d="m 0,0 c 0,-9.181 -7.574,-16.69 -16.83,-16.69 h -4.488 c -9.257,0 -16.829,7.509 -16.829,16.69 v 50.069 c 0,9.179 7.572,16.692 16.829,16.692 h 4.488 C -7.574,66.761 0,59.248 0,50.069 Z"
             style="fill:#fed2a4;fill-opacity:1;fill-rule:nonzero;stroke:none"
             id="path8416" />
        </g>
        <g
           id="g8418"
           transform="translate(233.5713,347.6934)">
          <path
             d="m 0,0 v 50.069 c 0,7.36 4.873,13.637 11.573,15.841 -1.656,0.545 -3.42,0.851 -5.255,0.851 H 1.83 C -7.427,66.761 -15,59.248 -15,50.069 V 0 c 0,-9.181 7.573,-16.69 16.83,-16.69 h 4.488 c 1.835,0 3.599,0.305 5.255,0.85 C 4.873,-13.637 0,-7.36 0,0"
             style="fill:#ffbd86;fill-opacity:1;fill-rule:nonzero;stroke:none"
             id="path8420" />
        </g>
        <g
           id="g8422"
           transform="translate(256.7187,347.6934)">
          <path
             d="m 0,0 c 0,-9.181 -7.574,-16.69 -16.83,-16.69 h -4.488 c -9.257,0 -16.829,7.509 -16.829,16.69 v 50.069 c 0,9.179 7.572,16.692 16.829,16.692 h 4.488 C -7.574,66.761 0,59.248 0,50.069 Z"
             style="fill:none;stroke:#000000;stroke-width:15;stroke-linecap:round;stroke-linejoin:round;stroke-miterlimit:10;stroke-dasharray:none;stroke-opacity:1"
             id="path8424" />
        </g>
        <g
           id="g8426"
           transform="translate(294.8657,352.4385)">
          <path
             d="m 0,0 c 0,-9.181 -7.573,-16.691 -16.83,-16.691 h -4.487 c -9.257,0 -16.83,7.51 -16.83,16.691 v 50.069 c 0,9.179 7.573,16.689 16.83,16.689 h 4.487 C -7.573,66.758 0,59.248 0,50.069 Z"
             style="fill:#fed2a4;fill-opacity:1;fill-rule:nonzero;stroke:none"
             id="path8428" />
        </g>
        <g
           id="g8430"
           transform="translate(271.7187,352.4385)">
          <path
             d="m 0,0 v 50.069 c 0,7.36 4.873,13.635 11.574,15.838 -1.657,0.545 -3.422,0.851 -5.257,0.851 H 1.83 C -7.427,66.758 -15,59.248 -15,50.069 V 0 c 0,-9.181 7.573,-16.691 16.83,-16.691 h 4.487 c 1.835,0 3.6,0.305 5.257,0.85 C 4.873,-13.638 0,-7.36 0,0"
             style="fill:#ffbd86;fill-opacity:1;fill-rule:nonzero;stroke:none"
             id="path8432" />
        </g>
        <g
           id="g8434"
           transform="translate(294.8657,352.4385)">
          <path
             d="m 0,0 c 0,-9.181 -7.573,-16.691 -16.83,-16.691 h -4.487 c -9.257,0 -16.83,7.51 -16.83,16.691 v 50.069 c 0,9.179 7.573,16.689 16.83,16.689 h 4.487 C -7.573,66.758 0,59.248 0,50.069 Z"
             style="fill:none;stroke:#000000;stroke-width:15;stroke-linecap:round;stroke-linejoin:round;stroke-miterlimit:10;stroke-dasharray:none;stroke-opacity:1"
             id="path8436" />
        </g>
        <g
           id="g8438"
           transform="translate(333.0137,338.2061)">
          <path
             d="m 0,0 c 0,-9.178 -7.575,-16.689 -16.83,-16.689 h -4.488 c -9.257,0 -16.83,7.511 -16.83,16.689 v 50.069 c 0,9.181 7.573,16.691 16.83,16.691 h 4.488 C -7.575,66.76 0,59.25 0,50.069 Z"
             style="fill:#fed2a4;fill-opacity:1;fill-rule:nonzero;stroke:none"
             id="path8440" />
        </g>
        <g
           id="g8442"
           transform="translate(309.8657,338.2061)">
          <path
             d="M 0,0 V 50.069 C 0,57.43 4.873,63.706 11.574,65.909 9.917,66.454 8.153,66.76 6.318,66.76 H 1.83 C -7.427,66.76 -15,59.25 -15,50.069 V 0 c 0,-9.178 7.573,-16.689 16.83,-16.689 h 4.488 c 1.835,0 3.599,0.305 5.256,0.85 C 4.873,-13.635 0,-7.358 0,0"
             style="fill:#ffbd86;fill-opacity:1;fill-rule:nonzero;stroke:none"
             id="path8444" />
        </g>
        <g
           id="g8446"
           transform="translate(333.0137,338.2061)">
          <path
             d="m 0,0 c 0,-9.178 -7.575,-16.689 -16.83,-16.689 h -4.488 c -9.257,0 -16.83,7.511 -16.83,16.689 v 50.069 c 0,9.181 7.573,16.691 16.83,16.691 h 4.488 C -7.575,66.76 0,59.25 0,50.069 Z"
             style="fill:none;stroke:#000000;stroke-width:15;stroke-linecap:round;stroke-linejoin:round;stroke-miterlimit:10;stroke-dasharray:none;stroke-opacity:1"
             id="path8448" />
        </g>
        <g
           id="g8450"
           transform="translate(301.189,249.0215)">
          <path
             d="m 0,0 51.296,46.207 c 6.546,6.493 6.545,17.114 0,23.605 l -35.7,35.404 c -6.546,6.491 -17.257,6.491 -23.801,0 l -3.174,-3.146 c -6.545,-6.493 -6.545,-17.114 0,-23.604 L 9.249,58.008 H -4.2 c 0,0 -24.264,-1.779 -24.264,-26.435"
             style="fill:#fed2a4;fill-opacity:1;fill-rule:nonzero;stroke:#000000;stroke-width:15;stroke-linecap:round;stroke-linejoin:round;stroke-miterlimit:10;stroke-dasharray:none;stroke-opacity:1"
             id="path8452" />
        </g>
        <g
           id="g8454"
           transform="translate(321.5044,110.9619)">
          <path
             d="m 0,0 c -0.008,-2.75 -2.478,-4.993 -5.228,-4.985 h -119.357 c -2.75,0.007 -4.994,2.6 -4.986,5.35 v 74.932 c 0.008,2.75 2.478,4.994 5.228,4.986 H -4.986 C -2.236,80.275 0.008,77.686 0,74.936 Z"
             style="fill:#d4f2f6;fill-opacity:1;fill-rule:nonzero;stroke:none"
             id="path8456" />
        </g>
        <g
           id="g8458"
           transform="translate(226.9331,111.3271)">
          <path
             d="m 0,0 v 74.932 c 0.008,2.75 2.478,4.994 5.228,4.986 h -35 c -2.75,0.008 -5.22,-2.236 -5.228,-4.986 V 0 c -0.008,-2.75 2.236,-5.343 4.986,-5.351 h 35 C 2.236,-5.343 -0.008,-2.75 0,0"
             style="fill:#a6e7f0;fill-opacity:1;fill-rule:nonzero;stroke:none"
             id="path8460" />
        </g>
        <g
           id="g8462"
           transform="translate(321.5044,110.9619)">
          <path
             d="m 0,0 c -0.008,-2.75 -2.478,-4.993 -5.228,-4.985 h -119.357 c -2.75,0.007 -4.994,2.6 -4.986,5.35 v 74.932 c 0.008,2.75 2.478,4.994 5.228,4.986 H -4.986 C -2.236,80.275 0.008,77.686 0,74.936 Z"
             style="fill:none;stroke:#000000;stroke-width:15;stroke-linecap:round;stroke-linejoin:round;stroke-miterlimit:10;stroke-dasharray:none;stroke-opacity:1"
             id="path8464" />
        </g>
        <g
           id="g8466"
           transform="translate(225.2422,136.7588)">
          <path
             d="M 0,0 V -83.01"
             style="fill:none;stroke:#000000;stroke-width:15;stroke-linecap:round;stroke-linejoin:round;stroke-miterlimit:10;stroke-dasharray:none;stroke-opacity:1"
             id="path8468" />
        </g>
        <g
           id="g8470"
           transform="translate(257.5278,136.7588)">
          <path
             d="M 0,0 V -129.259"
             style="fill:none;stroke:#000000;stroke-width:15;stroke-linecap:round;stroke-linejoin:round;stroke-miterlimit:10;stroke-dasharray:none;stroke-opacity:1"
             id="path8472" />
        </g>
        <g
           id="g8474"
           transform="translate(289.814,136.7588)">
          <path
             d="M 0,0 V -83.01"
             style="fill:none;stroke:#000000;stroke-width:15;stroke-linecap:round;stroke-linejoin:round;stroke-miterlimit:10;stroke-dasharray:none;stroke-opacity:1"
             id="path8476" />
        </g>
      </g>
    </g>
  </g>
</svg>
