<svg id="Capa_1" enable-background="new 0 0 512 512" height="512" viewBox="0 0 512 512" width="512" xmlns="http://www.w3.org/2000/svg"><g><g><path d="m346 151h-180c-8.291 0-15-6.709-15-15v-60c0-24.814 20.186-45 45-45h120c24.814 0 45 20.186 45 45v60c0 8.291-6.709 15-15 15zm-165-30h150v-45c0-8.276-6.724-15-15-15h-120c-8.276 0-15 6.724-15 15z" fill="#5b6773"/></g><path d="m316 61c8.276 0 15 6.724 15 15v45h-75v30h90c8.291 0 15-6.709 15-15v-60c0-24.814-20.186-45-45-45h-60v30z" fill="#3e434d"/><g id="Suitcase_2_"><g><g><g><g><path d="m497 481h-482c-8.291 0-15-6.709-15-15v-330c0-8.291 6.709-15 15-15s15 6.709 15 15c0 50.493 11.426 87.51 33.984 110.024 16.597 16.568 38.98 24.976 66.534 24.976h.205 95.277c8.291 0 15 6.709 15 15v45h30v-45c0-8.291 6.709-15 15-15h94.604c11.836.088 42.715.205 67.441-24.404 22.529-22.427 33.955-59.634 33.955-110.596 0-8.291 6.709-15 15-15s15 6.709 15 15v330c0 8.291-6.709 15-15 15z" fill="#5b6773"/></g></g></g></g><path d="m497 121c-8.291 0-15 6.709-15 15 0 50.962-11.426 88.169-33.955 110.596-24.727 24.609-55.605 24.492-67.441 24.404h-94.604c-8.291 0-15 6.709-15 15v45h-15v150h241c8.291 0 15-6.709 15-15v-330c0-8.291-6.709-15-15-15z" fill="#3e434d"/><g><path d="m382.479 301c-.264 0-.542 0-.82 0h-95.659c-8.291 0-15-6.709-15-15v-15h-30v15c0 8.291-6.709 15-15 15h-94.604c-.088 0-.176 0-.264 0-36.416 0-65.918-11.353-88.345-33.75-28.388-28.345-42.787-72.495-42.787-131.25 0-24.814 20.186-45 45-45h422c24.814 0 45 20.186 45 45 0 59.238-14.399 103.594-42.803 131.865-22.09 21.988-51.269 33.135-86.718 33.135z" fill="#a2b1cc"/></g><path d="m467 91h-211v180h15v15c0 8.291 6.709 15 15 15h95.658.82c35.449 0 64.629-11.147 86.719-33.135 28.404-28.271 42.803-72.627 42.803-131.865 0-24.814-20.186-45-45-45z" fill="#7d90b3"/><g><path d="m286 361h-60c-8.291 0-15-6.709-15-15v-90c0-8.291 6.709-15 15-15h60c8.291 0 15 6.709 15 15v90c0 8.291-6.709 15-15 15z" fill="#ffdf40"/></g><g><path d="m256 361h30c8.291 0 15-6.709 15-15v-90c0-8.291-6.709-15-15-15h-30z" fill="#ffbe40"/></g></g></g></svg>