<?xml version="1.0" encoding="iso-8859-1"?>
<!-- Uploaded to: SVG Repo, www.svgrepo.com, Generator: SVG Repo Mixer Tools -->
<svg height="800px" width="800px" version="1.1" id="Layer_1" xmlns="http://www.w3.org/2000/svg" xmlns:xlink="http://www.w3.org/1999/xlink" 
	 viewBox="0 0 512.001 512.001" xml:space="preserve">
<circle style="fill:#F9B233;" cx="255.999" cy="256" r="248.136"/>
<circle style="fill:#FAC15C;" cx="207.972" cy="223.982" r="192.11"/>
<circle style="fill:#F9C573;" cx="143.935" cy="183.964" r="112.064"/>
<path style="fill:#1D1D1B;" d="M437.019,74.981C388.667,26.63,324.38,0.001,255.999,0.001S123.332,26.63,74.981,74.981
	C26.628,123.333,0,187.62,0,256s26.628,132.667,74.981,181.02c48.352,48.351,112.639,74.981,181.02,74.981
	c68.38,0,132.667-26.628,181.02-74.981c48.351-48.352,74.981-112.64,74.981-181.02S485.372,123.333,437.019,74.981z M496.274,256
	c0,51.87-16.332,101.227-46.552,142.21c-58.794-22.446-97.81-78.713-97.81-142.21s39.016-119.763,97.81-142.21
	C479.942,154.774,496.274,204.13,496.274,256z M62.278,113.79c58.791,22.446,97.81,78.719,97.81,142.21
	c0,63.498-39.016,119.763-97.81,142.21C32.058,357.227,15.726,307.871,15.726,256S32.058,154.774,62.278,113.79z M425.899,425.899
	c-45.381,45.382-105.72,70.374-169.899,70.374S131.481,471.281,86.1,425.899c-4.775-4.777-9.312-9.727-13.631-14.821
	c62.312-25.889,103.344-86.682,103.344-155.077c0-68.387-41.036-129.188-103.344-155.077c4.319-5.094,8.856-10.046,13.631-14.822
	c45.382-45.382,105.72-70.375,169.899-70.375S380.517,40.72,425.899,86.101c4.775,4.775,9.312,9.727,13.631,14.821
	C377.218,126.811,336.186,187.604,336.186,256s41.032,129.189,103.344,155.078C435.211,416.172,430.674,421.124,425.899,425.899z"/>
</svg>